<?xml version="1.0" encoding="UTF-8"?>
<!DOCTYPE svg  PUBLIC '-//W3C//DTD SVG 1.1//EN'  'http://www.w3.org/Graphics/SVG/1.1/DTD/svg11.dtd'>
<svg enable-background="new 0 0 301 76" version="1.1" viewBox="0 0 301 76" xml:space="preserve" xmlns="http://www.w3.org/2000/svg">
<path d="m141.3 18.2v14.4c-1.4-1.3-2.6-1.9-2.8-2.8-2.1-6.5-5.2-9.9-9.7-10.1-4-0.2-6.8 1.9-7.6 5.4-0.6 2.9 1.6 6.8 4.6 8.1 3.4 1.5 6.7 3 10 4.5 6.6 2.9 7.8 8 6.9 12.8-0.8 5.1-6.2 9.7-11.6 9.6-3.5 0-7-1-10.5-1.5-1-0.1-2 0-3 0.1-1 0.2-2 0.6-3.2 1v-14.3l0.9-0.6c0.7 1 1.6 1.8 2 2.9 1.5 3.8 3.2 7.1 7.3 9.1 4.9 2.4 10.3 0.3 11.9-3.1 1.9-4-0.9-9.6-5.5-11.4-3.3-1.3-6.6-2.6-9.8-4.1-4.5-2.2-6.6-7.2-5.5-12.6 0.9-4.3 5.7-8.3 10.2-8.1 3.2 0.2 6.4 1.2 9.7 1.5 2 0.2 3.7-0.4 5.7-0.8z" fill="#FE2202"/>
<path d="m25.2 23.4c-1.2-1-2.3-2.3-3.6-2.8-2-0.7-2.1-0.4-1.7-2.5h19.5c5.7-0.3 11.6 4.4 12 9.2 0.7 7.2-4.2 11.9-10.1 13.3-2.9 0.7-6 0.8-9.4 1.2 0 4.3-0.1 8.6 0.1 13 0.1 0.8 1.6 1.7 2.6 2.3s2.2 0.7 3.3 1c-0.1 0.3-0.2 0.7-0.2 1h-18.4c2.3-1.9 4.2-3.3 6-4.8 0.2-5.2 0.6-10.3 0.6-15.5-0.1-5.1-0.5-10.3-0.7-15.4zm6.9-2.7v18.2c10.4-1.7 12.8-4.1 11.8-11.8-0.7-5.2-3.8-7-11.8-6.4z" fill="#FE2201"/>
<path d="m230.6 54.8 4.9 4.2h-10.6c-0.1-0.7-0.2-1.7-0.4-3.3-3.3 3.7-7 5.4-11.5 4.4-4-0.9-5.2-3.9-5.4-7.3-0.3-4.5-0.1-9 0-13.5 0.1-2.9-0.1-5.5-3.7-6.1-0.4-0.1-0.6-1.1-1-1.9 3.5-0.4 6.6-0.7 9.9-1.1 0 7-0.2 13.6 0.1 20.2 0.1 2.1 1.1 4.8 2.7 6.1 2.5 2.2 5.2 0 7.2-1.6 1.1-0.8 1.8-2.6 1.9-4.1 0.2-4.5 0-9 0.1-13.5 0-2.5-0.7-4.1-3.5-4.2-0.6 0-1.2-0.8-1.7-1.2 0.6-0.3 1.1-0.9 1.7-0.9 2.9-0.3 5.8-0.5 8.7-0.7 0 4.6-0.1 9.2 0.1 13.8 0 3.6 0.3 7.1 0.5 10.7z" fill="#FE2101"/>
<path d="m69.3 30.2c8-1.1 14.6 6.7 14.5 14.5-0.1 9.1-6.4 15.8-13.9 15.6-9.4-0.2-14.5-7-14.3-15.2 0-8.5 4.2-15.3 13.7-14.9zm8.9 14.1c-0.9-2.7-1.5-5.8-2.8-8.6-1.8-3.9-7.3-4.5-10.3-1.5-3.7 3.7-4.7 14.5-1.7 19.9 1.4 2.5 3.2 4.4 6.5 3.9 3.1-0.5 5.3-2.1 6.2-5 0.9-2.6 1.3-5.4 2.1-8.7z" fill="#FE2302"/>
<path d="m269 44.6c0.2 1.8 0.4 3.6 0.6 5.5 0.8 7 10.5 10.1 15.2 3.9 0.6-0.8 1.9-1 2.9-1.5-0.4 1.1-0.4 2.5-1.1 3.3-3.8 4.5-9.3 6-14.7 3.8-6.2-2.5-8.1-5.9-8.9-12.7-0.5-4.3 0.4-8.4 3.1-11.8 3.8-4.6 9.3-6.2 14.2-4.3 5.5 2.2 7.6 6 7.3 13-3.8 0-7.7-0.1-11.5 0-2.4 0.1-4.7 0.5-7.1 0.8zm12.4-3.3c1-3.8 0.1-6.9-2.9-8.4-1.6-0.8-4.6-0.3-6.3 0.7-2.6 1.6-3.2 4.6-3.1 7.7h12.3z" fill="#FE2303"/>
<path d="m153.5 44.5c-0.4 6.8 1.7 10.6 6.4 12.2 4 1.4 6.8-0.3 9.5-3 0.7-0.7 1.9-0.8 2.9-1.1-0.4 1-0.5 2.2-1.1 2.9-4.6 4.9-11.4 6.3-16.4 3.6-6.7-3.7-8.1-12-7.2-17.2 0.8-4.5 3.2-8.1 7.2-10.5 6.3-3.9 16.2 0.5 17.3 7.8 0.2 1.6 0.4 3.1 0.6 4.7-3.1 0-6.2-0.1-9.4 0-3.2 0-6.5 0.3-9.8 0.6zm0.2-2.3h8.5c4.9 0 4.9 0 4-4.8-0.8-4-3.9-5.9-7.8-4.8-2.9 0.9-4.9 4.7-4.7 9.6z" fill="#FE2302"/>
<path d="m88.1 58.6v-6.8c0-0.6 0.1-1.2 0.9-2.2 0.8 1.2 1.6 2.4 2.2 3.6 1.8 3.5 4.8 5.2 8.4 4.6 1.8-0.3 4-2 4.7-3.6 1.1-2.5-0.3-4.7-3.1-5.8-3.1-1.2-6-2.5-9.1-3.8-4.2-1.8-3.7-5.6-3.4-8.9 0.3-2.8 4-5.4 7.4-5.5 3.6-0.1 7.3 0 10.9 0 0.3 3 0.6 5.7 0.9 8.5-0.2 0.2-0.4 0.5-0.7 0.7-0.7-0.8-1.6-1.6-2.2-2.5-2.2-3.8-4.8-5.4-8.5-4.4-1.4 0.4-2.8 2-3.4 3.4-0.7 1.7-0.2 3.6 2.1 4.4 2.8 1 5.5 2.1 8.1 3.3 4.3 2 6 4.7 5.6 8.4-0.4 4.2-2 6.2-7.5 7.9-2 0.6-4.4-0.1-6.5-0.3-1.7-0.2-3.9-0.6-6.8-1z" fill="#FE2303"/>
<path d="m176.7 45.3c0-7.1 3-12.1 8.8-14.4 4.6-1.9 11.1-0.6 13.3 3.3 0.9 1.6 0.5 4.1 0.2 6.1-0.1 0.4-2.9 0.9-3.7 0.4-1-0.7-1.5-2.4-1.9-3.8-0.4-1.3-0.2-3.9-0.6-4-2.3-0.5-5-1.1-6.8 1.4-3.3 4.5-3.8 9.5-2.8 14.7 0.4 1.9 1.3 4 2.5 5.5 3.1 3.7 7.1 3.7 11 0.5 0.8-0.6 1.4-1.5 2.2-2.1 0.5-0.3 1.2-0.3 1.9-0.5 0 0.7 0.3 1.7-0.1 2.2-4.6 6.1-12 7.7-18.2 3.4-4.4-3-5.8-6.7-5.8-12.7z" fill="#FE2303"/>
<path d="m247.7 30.1c0.2 1.6 0.3 2.7 0.4 3.1 3.1-1 6-2.3 9-2.7 0.9-0.1 2.7 1.7 3.1 3 0.4 1.1-0.3 2.9-1.1 3.8-0.5 0.6-2.5 0.9-3.1 0.4-1.2-0.9-1.9-2.5-2.9-3.9-3.7 0.9-5.2 2.7-5.2 6.8 0 4 0.3 8-0.1 12-0.3 3.4 1.2 4.6 4.1 5.2 0.7 0.1 1.4 0.3 1.9 1.4h-15.4c6-2.4 4.1-7.5 4.2-12 0.1-3.6 0.1-7.2-0.4-10.8-0.1-1.1-1.8-2.1-2.8-3.1-0.4-0.4-0.8-0.7-1.2-1 0.5-0.4 0.9-1.1 1.4-1.2 2.6-0.5 5.2-0.7 8.1-1z" fill="#FE2201"/>
<path d="m25.2 23.4c0.2 5.2 0.6 10.3 0.6 15.5s-0.4 10.3-0.6 15.5v-31z" fill="#FE5037"/>
<path d="m230.6 54.8c-0.2-3.5-0.5-7.1-0.6-10.6-0.1-4.6 0-9.2-0.1-13.8 0.3 0.6 0.8 1.2 0.8 1.7 0 7.5-0.1 15.1-0.1 22.7z" fill="#FE7E6C"/>
<path d="m39.4 18.1h-19.5 19.5z" fill="#FE9B8D"/>
<path d="m153.5 44.5c3.3-0.2 6.6-0.6 9.9-0.7 3.1-0.1 6.2 0 9.4 0-1.6 0.2-3.2 0.7-4.8 0.7h-14.5z" fill="#FE7562"/>
<path d="m269 44.6c2.4-0.3 4.7-0.7 7.1-0.8 3.8-0.1 7.6 0 11.5 0-1.8 0.2-3.7 0.7-5.5 0.7-4.4 0.1-8.7 0-13.1 0.1z" fill="#FE7562"/>
</svg>
