<svg id="svg" version="1.1" xmlns="http://www.w3.org/2000/svg" xmlns:xlink="http://www.w3.org/1999/xlink" width="400" height="400" viewBox="0, 0, 400,400"><g id="svgg"><path id="path0" d="M275.900 0.275 C 274.415 0.364,273.200 0.608,273.200 0.818 C 273.200 1.028,272.401 1.200,271.424 1.200 C 270.447 1.200,269.536 1.380,269.400 1.600 C 269.264 1.820,268.443 2.000,267.576 2.000 C 266.709 2.000,266.000 2.180,266.000 2.400 C 266.000 2.620,265.460 2.800,264.800 2.800 C 264.140 2.800,263.600 2.980,263.600 3.200 C 263.600 3.420,263.148 3.600,262.595 3.600 C 261.626 3.600,261.262 3.726,259.305 4.738 C 258.813 4.992,258.048 5.200,257.605 5.200 C 257.162 5.200,256.800 5.380,256.800 5.600 C 256.800 5.820,256.260 6.000,255.600 6.000 C 254.940 6.000,254.400 6.180,254.400 6.400 C 254.400 6.620,254.040 6.800,253.600 6.800 C 253.160 6.800,252.800 6.980,252.800 7.200 C 252.800 7.420,252.440 7.600,252.000 7.600 C 251.560 7.600,251.200 7.780,251.200 8.000 C 251.200 8.220,250.896 8.400,250.524 8.400 C 249.571 8.400,242.334 12.016,241.553 12.883 C 241.197 13.277,240.612 13.600,240.253 13.600 C 239.894 13.600,239.600 13.750,239.600 13.932 C 239.600 14.115,239.105 14.519,238.500 14.830 C 237.895 15.140,237.109 15.711,236.753 16.097 C 236.397 16.484,235.884 16.800,235.614 16.800 C 235.343 16.800,234.617 17.340,234.000 18.000 C 233.383 18.660,232.667 19.200,232.408 19.200 C 232.149 19.200,231.276 19.875,230.469 20.700 C 229.661 21.525,228.370 22.677,227.600 23.260 C 225.541 24.820,220.000 30.259,220.000 30.721 C 220.000 30.940,219.100 32.038,218.000 33.161 C 216.900 34.285,216.000 35.356,216.000 35.543 C 216.000 35.729,215.460 36.446,214.800 37.137 C 214.140 37.828,213.600 38.583,213.600 38.815 C 213.600 39.047,213.164 39.672,212.631 40.205 C 212.098 40.738,211.546 41.540,211.404 41.987 C 211.262 42.434,210.978 42.800,210.773 42.800 C 210.568 42.800,210.400 42.972,210.400 43.182 C 210.400 43.392,209.950 44.228,209.400 45.038 C 208.850 45.849,208.400 46.847,208.400 47.256 C 208.400 47.665,208.241 48.000,208.047 48.000 C 207.852 48.000,207.590 48.315,207.464 48.700 C 207.338 49.085,206.777 50.170,206.218 51.111 C 205.658 52.052,205.200 53.177,205.200 53.611 C 205.200 54.045,205.020 54.400,204.800 54.400 C 204.580 54.400,204.400 54.760,204.400 55.200 C 204.400 55.640,204.220 56.000,204.000 56.000 C 203.780 56.000,203.600 56.360,203.600 56.800 C 203.600 57.240,203.420 57.600,203.200 57.600 C 202.980 57.600,202.800 58.050,202.800 58.600 C 202.800 59.150,202.620 59.600,202.400 59.600 C 202.180 59.600,202.000 59.949,202.000 60.376 C 202.000 60.803,201.820 61.264,201.600 61.400 C 201.380 61.536,201.200 62.076,201.200 62.600 C 201.200 63.124,201.020 63.664,200.800 63.800 C 200.580 63.936,200.400 64.476,200.400 65.000 C 200.400 65.524,200.220 66.064,200.000 66.200 C 199.780 66.336,199.600 67.067,199.600 67.824 C 199.600 68.581,199.420 69.200,199.200 69.200 C 198.980 69.200,198.800 69.920,198.800 70.800 C 198.800 71.680,198.620 72.400,198.400 72.400 C 198.180 72.400,198.000 73.199,198.000 74.176 C 198.000 75.153,197.820 76.064,197.600 76.200 C 197.380 76.336,197.200 77.391,197.200 78.544 C 197.200 79.697,197.031 80.811,196.825 81.020 C 195.779 82.080,195.777 107.200,196.823 107.200 C 197.030 107.200,197.200 108.280,197.200 109.600 C 197.200 110.933,197.378 112.000,197.600 112.000 C 197.820 112.000,198.000 112.799,198.000 113.776 C 198.000 114.753,198.180 115.664,198.400 115.800 C 199.829 116.683,197.099 116.800,175.000 116.800 C 159.400 116.800,151.200 116.938,151.200 117.200 C 151.200 117.459,146.000 117.600,136.400 117.600 C 126.800 117.600,121.600 117.741,121.600 118.000 C 121.600 118.255,118.200 118.400,112.200 118.400 C 106.200 118.400,102.800 118.545,102.800 118.800 C 102.800 119.053,99.933 119.200,95.000 119.200 C 90.067 119.200,87.200 119.347,87.200 119.600 C 87.200 119.848,85.000 120.000,81.400 120.000 C 77.800 120.000,75.600 120.152,75.600 120.400 C 75.600 120.649,73.341 120.800,69.624 120.800 C 66.071 120.800,63.547 120.962,63.400 121.200 C 63.256 121.433,60.996 121.600,57.976 121.600 C 54.792 121.600,52.800 121.754,52.800 122.000 C 52.800 122.231,51.541 122.400,49.824 122.400 C 48.187 122.400,46.736 122.580,46.600 122.800 C 46.464 123.020,45.733 123.200,44.976 123.200 C 44.219 123.200,43.600 123.380,43.600 123.600 C 43.600 123.820,43.240 124.000,42.800 124.000 C 42.360 124.000,42.000 124.180,42.000 124.400 C 42.000 124.620,41.544 124.800,40.987 124.800 C 39.920 124.800,35.895 126.654,35.667 127.251 C 35.593 127.443,35.321 127.600,35.062 127.600 C 34.273 127.600,29.790 131.629,26.973 134.872 C 26.518 135.395,25.618 136.808,24.973 138.012 C 24.328 139.215,23.665 140.260,23.500 140.333 C 23.335 140.407,23.200 140.812,23.200 141.233 C 23.200 141.655,23.020 142.000,22.800 142.000 C 22.580 142.000,22.400 142.450,22.400 143.000 C 22.400 143.550,22.220 144.000,22.000 144.000 C 21.780 144.000,21.600 144.540,21.600 145.200 C 21.600 145.860,21.420 146.400,21.200 146.400 C 20.980 146.400,20.800 147.120,20.800 148.000 C 20.800 148.880,20.620 149.600,20.400 149.600 C 20.167 149.600,20.000 150.925,20.000 152.776 C 20.000 154.523,19.820 156.064,19.600 156.200 C 19.379 156.336,19.200 158.130,19.200 160.200 C 19.200 162.270,19.021 164.064,18.800 164.200 C 18.573 164.340,18.400 166.337,18.400 168.824 C 18.400 171.475,18.242 173.200,18.000 173.200 C 17.757 173.200,17.600 174.992,17.600 177.776 C 17.600 180.396,17.429 182.458,17.200 182.600 C 16.966 182.745,16.800 185.063,16.800 188.200 C 16.800 191.337,16.634 193.655,16.400 193.800 C 16.159 193.949,16.000 196.737,16.000 200.824 C 16.000 205.075,15.851 207.600,15.600 207.600 C 15.345 207.600,15.200 210.925,15.200 216.776 C 15.200 222.463,15.048 226.047,14.800 226.200 C 14.247 226.542,14.247 291.600,14.800 291.600 C 15.055 291.600,15.200 294.925,15.200 300.776 C 15.200 306.463,15.352 310.047,15.600 310.200 C 15.840 310.349,16.000 313.071,16.000 317.024 C 16.000 321.141,16.150 323.600,16.400 323.600 C 16.648 323.600,16.800 325.725,16.800 329.176 C 16.800 332.463,16.964 334.854,17.200 335.000 C 17.431 335.142,17.600 337.271,17.600 340.024 C 17.600 342.941,17.756 344.800,18.000 344.800 C 18.242 344.800,18.400 346.533,18.400 349.200 C 18.400 351.867,18.558 353.600,18.800 353.600 C 19.020 353.600,19.200 354.140,19.200 354.800 C 19.200 355.460,19.380 356.000,19.600 356.000 C 19.820 356.000,20.000 356.193,20.000 356.429 C 20.000 358.030,24.982 359.723,25.800 358.400 C 25.936 358.180,26.390 358.000,26.810 358.000 C 29.894 358.000,31.445 354.334,30.844 348.469 C 29.895 339.208,29.443 333.336,28.421 317.000 C 26.179 281.152,26.319 232.424,28.771 195.000 C 29.965 176.780,31.918 155.270,32.737 151.322 C 34.262 143.965,41.237 136.954,48.961 135.012 C 51.915 134.269,58.894 133.708,86.600 131.987 C 96.804 131.353,109.064 130.807,119.094 130.540 L 128.389 130.293 128.494 198.046 C 128.613 274.397,128.311 267.471,131.600 269.279 C 134.436 270.838,135.823 270.308,144.086 264.516 C 150.859 259.767,161.064 252.650,166.600 248.812 C 169.460 246.830,173.600 243.950,175.800 242.413 C 180.619 239.047,179.710 239.078,184.133 242.127 C 191.659 247.314,205.358 256.849,215.504 263.962 C 224.619 270.353,225.909 270.871,228.780 269.288 C 232.029 267.496,231.787 271.582,231.905 216.500 C 231.962 189.605,232.089 167.600,232.186 167.600 C 232.283 167.600,233.946 168.734,235.881 170.120 C 240.934 173.739,242.824 174.874,249.200 178.115 C 258.474 182.830,265.036 184.873,278.600 187.269 C 282.431 187.946,298.807 187.943,303.200 187.265 C 310.527 186.135,320.804 183.473,325.100 181.594 C 325.595 181.377,326.495 180.999,327.100 180.753 C 327.705 180.508,328.513 180.148,328.895 179.953 C 330.721 179.024,330.553 177.804,332.014 202.600 C 334.055 237.255,334.053 281.486,332.010 315.400 C 331.355 326.287,330.800 334.404,330.385 339.200 C 327.988 366.854,327.825 367.865,324.994 372.600 C 320.888 379.468,314.801 382.792,304.800 383.630 C 234.645 389.503,135.869 389.817,66.200 384.388 C 63.340 384.165,58.750 383.818,56.000 383.618 C 45.986 382.886,40.201 379.893,35.617 373.070 C 33.734 370.268,32.336 369.506,29.500 369.737 C 28.235 369.840,27.101 369.763,26.979 369.565 C 26.735 369.171,25.286 370.545,24.500 371.917 C 23.904 372.957,23.820 378.400,24.400 378.400 C 24.620 378.400,24.800 378.658,24.800 378.972 C 24.800 380.367,32.380 389.200,33.577 389.200 C 33.778 389.200,34.190 389.447,34.491 389.748 C 35.247 390.505,37.430 391.600,38.180 391.600 C 38.521 391.600,38.800 391.780,38.800 392.000 C 38.800 392.220,39.160 392.400,39.600 392.400 C 40.040 392.400,40.400 392.580,40.400 392.800 C 40.400 393.020,40.850 393.200,41.400 393.200 C 41.950 393.200,42.400 393.380,42.400 393.600 C 42.400 393.820,42.940 394.000,43.600 394.000 C 44.260 394.000,44.800 394.180,44.800 394.400 C 44.800 394.620,45.520 394.800,46.400 394.800 C 47.280 394.800,48.000 394.980,48.000 395.200 C 48.000 395.442,49.733 395.600,52.400 395.600 C 55.067 395.600,56.800 395.758,56.800 396.000 C 56.800 396.245,58.725 396.400,61.776 396.400 C 64.663 396.400,66.857 396.568,67.000 396.800 C 67.147 397.038,69.671 397.200,73.224 397.200 C 76.941 397.200,79.200 397.351,79.200 397.600 C 79.200 397.851,81.725 398.000,85.976 398.000 C 90.063 398.000,92.851 398.159,93.000 398.400 C 93.151 398.645,96.326 398.800,101.190 398.800 C 107.189 398.800,109.174 398.922,109.300 399.300 C 109.545 400.035,250.855 400.035,251.100 399.300 C 251.226 398.922,253.211 398.800,259.210 398.800 C 264.074 398.800,267.249 398.645,267.400 398.400 C 267.549 398.160,270.271 398.000,274.224 398.000 C 278.341 398.000,280.800 397.850,280.800 397.600 C 280.800 397.351,283.133 397.200,287.000 397.200 C 290.867 397.200,293.200 397.049,293.200 396.800 C 293.200 396.553,295.267 396.400,298.600 396.400 C 301.933 396.400,304.000 396.247,304.000 396.000 C 304.000 395.760,305.600 395.600,308.000 395.600 C 310.400 395.600,312.000 395.440,312.000 395.200 C 312.000 394.980,312.799 394.800,313.776 394.800 C 314.753 394.800,315.664 394.620,315.800 394.400 C 315.936 394.180,316.577 394.000,317.224 394.000 C 317.871 394.000,318.400 393.820,318.400 393.600 C 318.400 393.380,318.760 393.200,319.200 393.200 C 319.640 393.200,320.000 393.020,320.000 392.800 C 320.000 392.580,320.360 392.400,320.800 392.400 C 321.240 392.400,321.600 392.220,321.600 392.000 C 321.600 391.780,321.918 391.600,322.307 391.600 C 322.696 391.600,323.677 391.150,324.486 390.600 C 325.295 390.050,326.072 389.600,326.211 389.600 C 326.736 389.600,334.800 381.128,334.800 380.577 C 334.800 380.259,334.959 380.000,335.153 380.000 C 335.348 380.000,335.607 379.685,335.729 379.300 C 335.851 378.915,336.225 378.150,336.560 377.600 C 337.603 375.889,338.800 373.082,338.800 372.348 C 338.800 371.963,338.980 371.536,339.200 371.400 C 339.420 371.264,339.600 370.544,339.600 369.800 C 339.600 369.056,339.780 368.336,340.000 368.200 C 340.220 368.064,340.400 366.872,340.400 365.550 C 340.400 364.229,340.563 362.843,340.762 362.471 C 340.961 362.099,341.256 358.331,341.417 354.097 C 341.578 349.864,341.865 346.400,342.055 346.400 C 342.245 346.400,342.400 344.251,342.400 341.624 C 342.400 338.871,342.569 336.742,342.800 336.600 C 343.033 336.456,343.200 334.204,343.200 331.200 C 343.200 328.196,343.367 325.944,343.600 325.800 C 343.840 325.652,344.000 322.996,344.000 319.176 C 344.000 315.192,344.150 312.800,344.400 312.800 C 344.655 312.800,344.800 309.608,344.800 304.024 C 344.800 298.604,344.953 295.153,345.200 295.000 C 345.752 294.659,345.752 222.941,345.200 222.600 C 344.953 222.448,344.800 219.063,344.800 213.776 C 344.800 208.325,344.654 205.200,344.400 205.200 C 344.149 205.200,344.000 202.733,344.000 198.600 C 344.000 194.467,343.851 192.000,343.600 192.000 C 343.353 192.000,343.200 189.941,343.200 186.624 C 343.200 183.471,343.035 181.145,342.800 181.000 C 341.179 179.998,342.859 172.405,344.703 172.399 C 344.866 172.399,345.630 171.859,346.400 171.200 C 347.170 170.541,347.953 170.001,348.140 170.001 C 348.326 170.000,348.983 169.460,349.600 168.800 C 350.217 168.140,350.902 167.600,351.124 167.600 C 351.345 167.600,353.095 166.060,355.011 164.178 L 358.496 160.755 358.686 158.278 C 358.896 155.536,358.383 153.702,357.306 153.346 C 356.918 153.218,355.837 152.773,354.904 152.357 C 352.064 151.089,349.656 151.617,347.400 154.004 C 343.626 157.995,332.338 165.758,326.300 168.515 C 289.191 185.458,247.127 174.359,223.537 141.400 C 193.539 99.485,210.547 39.077,258.100 18.645 C 258.925 18.290,260.185 17.743,260.900 17.430 C 263.896 16.116,271.330 13.971,276.200 13.016 C 288.864 10.534,305.189 11.719,317.000 15.978 C 318.320 16.454,320.178 17.116,321.130 17.448 C 331.914 21.214,346.236 31.744,354.795 42.200 C 359.115 47.477,367.200 61.142,367.200 63.167 C 367.200 63.411,367.374 63.923,367.586 64.305 C 368.821 66.528,371.220 75.324,372.465 82.200 C 373.828 89.725,373.002 105.098,370.767 113.800 C 368.677 121.934,367.493 125.044,363.684 132.400 C 360.414 138.715,360.311 139.768,362.644 143.072 L 364.288 145.400 366.744 145.519 C 368.265 145.593,369.200 145.479,369.200 145.219 C 369.200 144.989,369.476 144.800,369.813 144.800 C 371.175 144.800,375.200 139.166,375.200 137.260 C 375.200 137.007,375.380 136.800,375.600 136.800 C 375.820 136.800,376.000 136.350,376.000 135.800 C 376.000 135.250,376.180 134.800,376.400 134.800 C 376.620 134.800,376.800 134.440,376.800 134.000 C 376.800 133.560,376.980 133.200,377.200 133.200 C 377.420 133.200,377.600 132.840,377.600 132.400 C 377.600 131.960,377.780 131.600,378.000 131.600 C 378.220 131.600,378.400 131.251,378.400 130.824 C 378.400 130.397,378.580 129.936,378.800 129.800 C 379.020 129.664,379.200 129.113,379.200 128.576 C 379.200 128.039,379.380 127.600,379.600 127.600 C 379.820 127.600,380.000 127.060,380.000 126.400 C 380.000 125.740,380.180 125.200,380.400 125.200 C 380.620 125.200,380.800 124.761,380.800 124.224 C 380.800 123.687,380.980 123.136,381.200 123.000 C 381.420 122.864,381.600 122.324,381.600 121.800 C 381.600 121.276,381.780 120.736,382.000 120.600 C 382.220 120.464,382.400 119.733,382.400 118.976 C 382.400 118.219,382.580 117.600,382.800 117.600 C 383.020 117.600,383.200 116.880,383.200 116.000 C 383.200 115.120,383.380 114.400,383.600 114.400 C 383.822 114.400,384.000 113.333,384.000 112.000 C 384.000 110.667,384.178 109.600,384.400 109.600 C 384.628 109.600,384.800 108.408,384.800 106.824 C 384.800 105.297,384.980 103.936,385.200 103.800 C 385.449 103.646,385.600 99.870,385.600 93.800 C 385.600 87.730,385.449 83.954,385.200 83.800 C 384.980 83.664,384.800 82.303,384.800 80.776 C 384.800 79.192,384.628 78.000,384.400 78.000 C 384.180 78.000,384.000 77.100,384.000 76.000 C 384.000 74.900,383.820 74.000,383.600 74.000 C 383.380 74.000,383.200 73.280,383.200 72.400 C 383.200 71.520,383.020 70.800,382.800 70.800 C 382.580 70.800,382.400 70.080,382.400 69.200 C 382.400 68.320,382.220 67.600,382.000 67.600 C 381.780 67.600,381.600 67.071,381.600 66.424 C 381.600 65.777,381.420 65.136,381.200 65.000 C 380.980 64.864,380.800 64.313,380.800 63.776 C 380.800 63.239,380.620 62.800,380.400 62.800 C 380.180 62.800,380.000 62.260,380.000 61.600 C 380.000 60.940,379.820 60.400,379.600 60.400 C 379.380 60.400,379.200 59.950,379.200 59.400 C 379.200 58.850,379.020 58.400,378.800 58.400 C 378.580 58.400,378.400 58.040,378.400 57.600 C 378.400 57.160,378.220 56.800,378.000 56.800 C 377.780 56.800,377.600 56.440,377.600 56.000 C 377.600 55.560,377.420 55.200,377.200 55.200 C 376.980 55.200,376.800 54.660,376.800 54.000 C 376.800 53.340,376.620 52.800,376.400 52.800 C 376.180 52.800,376.000 52.440,376.000 52.000 C 376.000 51.560,375.840 51.200,375.643 51.200 C 375.447 51.200,375.165 50.716,375.017 50.124 C 374.868 49.533,374.399 48.560,373.973 47.963 C 373.548 47.365,373.200 46.757,373.200 46.610 C 373.200 46.464,372.660 45.559,372.000 44.600 C 371.340 43.641,370.800 42.703,370.800 42.516 C 370.800 42.329,370.440 41.917,370.000 41.600 C 369.560 41.283,369.200 40.743,369.200 40.400 C 369.200 40.057,368.840 39.517,368.400 39.200 C 367.960 38.883,367.600 38.415,367.600 38.160 C 367.600 37.905,366.880 36.955,366.000 36.048 C 365.120 35.141,364.400 34.206,364.400 33.969 C 364.400 33.400,350.937 20.000,350.365 20.000 C 350.121 20.000,349.417 19.460,348.800 18.800 C 348.183 18.140,347.457 17.600,347.186 17.600 C 346.916 17.600,346.403 17.284,346.047 16.897 C 345.691 16.511,344.905 15.940,344.300 15.630 C 343.695 15.319,343.200 14.915,343.200 14.732 C 343.200 14.550,342.906 14.400,342.547 14.400 C 342.188 14.400,341.603 14.071,341.247 13.670 C 340.891 13.268,340.015 12.684,339.300 12.372 C 338.585 12.060,338.000 11.687,338.000 11.543 C 338.000 11.185,332.156 8.400,331.405 8.400 C 331.072 8.400,330.800 8.220,330.800 8.000 C 330.800 7.780,330.440 7.600,330.000 7.600 C 329.560 7.600,329.200 7.420,329.200 7.200 C 329.200 6.980,328.660 6.800,328.000 6.800 C 327.340 6.800,326.800 6.620,326.800 6.400 C 326.800 6.180,326.440 6.000,326.000 6.000 C 325.560 6.000,325.200 5.820,325.200 5.600 C 325.200 5.380,324.750 5.200,324.200 5.200 C 323.650 5.200,323.200 5.020,323.200 4.800 C 323.200 4.580,322.660 4.400,322.000 4.400 C 321.340 4.400,320.800 4.220,320.800 4.000 C 320.800 3.780,320.260 3.600,319.600 3.600 C 318.940 3.600,318.400 3.420,318.400 3.200 C 318.400 2.980,317.680 2.800,316.800 2.800 C 315.920 2.800,315.200 2.620,315.200 2.400 C 315.200 2.180,314.480 2.000,313.600 2.000 C 312.720 2.000,312.000 1.820,312.000 1.600 C 312.000 1.380,311.226 1.200,310.280 1.200 C 309.334 1.200,308.335 0.975,308.061 0.701 C 307.566 0.206,282.589 -0.125,275.900 0.275 M326.122 43.182 C 324.543 44.145,324.044 44.907,322.181 49.200 C 320.777 52.435,320.343 53.422,318.495 57.600 C 318.057 58.590,316.755 61.560,315.603 64.200 C 314.451 66.840,313.269 69.540,312.977 70.200 C 312.685 70.860,311.155 74.370,309.577 78.000 C 306.786 84.421,306.208 85.739,304.446 89.700 C 303.047 92.843,302.199 94.769,300.000 99.800 C 298.846 102.440,297.586 105.320,297.200 106.200 C 296.814 107.080,294.925 111.400,293.003 115.800 C 288.054 127.132,287.647 128.001,287.305 127.990 C 287.137 127.984,282.860 121.729,277.800 114.090 C 272.740 106.450,268.501 100.110,268.380 100.000 C 268.260 99.890,265.682 96.063,262.651 91.495 C 256.666 82.473,256.176 82.000,252.820 82.000 C 251.008 82.000,250.641 82.159,249.253 83.547 C 246.280 86.520,246.660 88.508,251.611 95.884 C 253.647 98.918,261.875 111.234,269.895 123.253 C 285.400 146.490,285.175 146.214,288.562 146.178 C 292.021 146.141,292.853 145.158,296.504 136.800 C 296.840 136.030,297.514 134.500,298.000 133.400 C 298.486 132.300,299.156 130.770,299.487 130.000 C 299.819 129.230,300.610 127.467,301.245 126.082 C 301.880 124.697,302.400 123.487,302.400 123.394 C 302.400 123.300,302.830 122.273,303.355 121.112 C 304.691 118.158,305.423 116.499,309.397 107.400 C 311.320 103.000,313.211 98.680,313.599 97.800 C 313.988 96.920,314.888 94.850,315.600 93.200 C 316.855 90.290,317.434 88.970,319.108 85.200 C 319.548 84.210,321.480 79.800,323.402 75.400 C 325.324 71.000,327.324 66.450,327.848 65.288 C 328.372 64.127,328.800 63.100,328.800 63.006 C 328.800 62.913,329.320 61.703,329.955 60.318 C 330.590 58.933,331.381 57.170,331.712 56.400 C 332.043 55.630,332.789 53.947,333.370 52.659 C 336.467 45.798,331.812 39.713,326.122 43.182 M205.762 134.100 C 209.083 140.950,216.178 152.130,218.391 154.000 C 218.521 154.110,219.026 154.719,219.514 155.354 L 220.400 156.508 220.400 204.430 C 220.400 232.027,220.249 252.446,220.044 252.573 C 219.848 252.694,217.823 251.475,215.544 249.865 C 213.265 248.254,207.800 244.446,203.400 241.403 C 199.000 238.359,194.500 235.204,193.400 234.391 C 181.417 225.537,180.070 225.167,174.438 229.185 C 170.967 231.661,165.786 235.287,154.653 243.034 C 149.621 246.536,144.541 250.075,143.362 250.900 C 142.184 251.725,140.945 252.400,140.608 252.400 C 140.063 252.400,140.008 245.878,140.099 191.300 L 140.200 130.200 142.200 129.963 C 143.300 129.832,157.561 129.697,173.890 129.663 L 203.580 129.600 205.762 134.100 " stroke="none" fill="#060604" fill-rule="evenodd"></path><path id="path1" d="M285.200 12.396 C 284.210 12.585,282.548 12.754,281.506 12.770 C 276.035 12.856,270.025 15.314,261.723 20.863 C 218.365 49.837,209.602 110.302,242.949 150.400 C 251.082 160.179,269.258 174.000,273.987 174.000 C 274.346 174.000,274.811 174.163,275.020 174.363 C 276.807 176.071,305.193 176.071,306.980 174.363 C 307.189 174.163,308.033 174.000,308.856 174.000 C 309.679 174.000,310.464 173.820,310.600 173.600 C 310.736 173.380,311.220 173.200,311.676 173.200 C 312.395 173.200,318.277 171.376,320.600 170.432 C 326.241 168.141,339.887 160.466,341.200 158.847 C 341.310 158.711,342.750 157.433,344.400 156.008 C 346.050 154.582,347.490 153.300,347.600 153.158 C 349.047 151.296,352.722 150.736,355.200 152.000 C 356.062 152.440,357.002 152.800,357.287 152.800 C 357.890 152.800,360.400 150.177,360.400 149.547 C 360.400 149.313,360.895 148.639,361.500 148.050 C 362.501 147.075,363.600 145.491,363.600 145.024 C 363.600 144.921,363.195 144.413,362.700 143.896 C 360.525 141.624,360.093 138.071,361.657 135.312 C 364.815 129.741,367.833 122.733,369.199 117.800 C 370.515 113.043,371.062 110.577,372.008 105.143 C 372.505 102.285,372.636 84.706,372.166 83.945 C 372.012 83.695,371.741 82.391,371.564 81.045 C 371.266 78.783,371.075 77.798,370.083 73.400 C 368.867 68.017,363.887 56.175,361.136 52.128 C 360.511 51.208,360.000 50.263,360.000 50.028 C 360.000 49.793,359.820 49.600,359.600 49.600 C 359.380 49.600,359.200 49.330,359.200 49.000 C 359.200 48.670,359.020 48.400,358.800 48.400 C 358.580 48.400,358.400 48.130,358.400 47.800 C 358.400 47.470,358.259 47.200,358.086 47.200 C 357.914 47.200,357.457 46.667,357.072 46.015 C 356.687 45.363,356.153 44.597,355.886 44.314 C 355.619 44.031,354.688 42.899,353.818 41.799 C 351.776 39.218,345.623 33.069,342.800 30.788 C 341.590 29.811,340.510 28.919,340.400 28.805 C 340.290 28.692,339.908 28.420,339.551 28.200 C 339.194 27.980,337.830 27.049,336.520 26.132 C 331.319 22.490,319.773 16.800,317.584 16.800 C 317.179 16.800,316.749 16.641,316.629 16.446 C 316.508 16.251,315.913 15.996,315.305 15.879 C 314.697 15.762,313.480 15.459,312.600 15.206 C 308.296 13.970,305.117 13.351,300.200 12.793 C 295.217 12.227,287.188 12.014,285.200 12.396 M331.686 42.500 C 334.110 43.886,335.200 45.672,335.200 48.259 C 335.200 49.520,334.684 50.924,331.911 57.200 C 331.473 58.190,330.846 59.630,330.516 60.400 C 330.187 61.170,329.576 62.565,329.158 63.500 C 328.741 64.435,328.040 66.010,327.600 67.000 C 327.160 67.990,326.440 69.610,326.000 70.600 C 325.560 71.590,324.859 73.165,324.442 74.100 C 324.024 75.035,323.394 76.475,323.042 77.300 C 322.689 78.125,322.146 79.385,321.835 80.100 C 321.524 80.815,320.608 82.930,319.800 84.800 C 318.991 86.670,317.985 88.963,317.565 89.896 C 317.144 90.828,316.800 91.675,316.800 91.778 C 316.800 91.880,316.240 93.187,315.556 94.682 C 314.871 96.177,313.971 98.165,313.556 99.100 C 313.140 100.035,312.440 101.610,312.000 102.600 C 311.560 103.590,310.859 105.165,310.442 106.100 C 310.024 107.035,309.376 108.520,309.001 109.400 C 308.626 110.280,307.887 111.890,307.360 112.979 C 306.832 114.067,306.400 115.113,306.400 115.304 C 306.400 115.494,305.875 116.764,305.233 118.125 C 304.591 119.486,303.490 121.950,302.786 123.600 C 301.411 126.822,300.467 128.969,298.955 132.312 C 298.430 133.473,298.000 134.520,298.000 134.637 C 298.000 134.831,297.437 136.074,294.559 142.229 C 291.383 149.024,286.088 148.565,281.208 141.073 C 279.892 139.053,278.454 136.950,278.013 136.400 C 277.572 135.850,277.208 135.175,277.205 134.900 C 277.202 134.625,277.020 134.400,276.800 134.400 C 276.580 134.400,276.400 134.130,276.400 133.800 C 276.400 133.470,276.250 133.200,276.068 133.200 C 275.885 133.200,275.480 132.705,275.168 132.100 C 274.855 131.495,274.285 130.651,273.900 130.225 C 273.515 129.798,273.200 129.213,273.200 128.925 C 273.200 128.636,273.050 128.400,272.868 128.400 C 272.685 128.400,272.280 127.905,271.968 127.300 C 271.656 126.695,271.304 126.110,271.184 126.000 C 270.737 125.589,248.083 91.321,247.455 90.107 C 245.249 85.841,249.656 80.300,254.272 81.535 C 257.061 82.281,257.393 82.671,265.024 94.178 C 268.971 100.130,272.335 105.060,272.500 105.133 C 272.665 105.207,272.800 105.477,272.800 105.733 C 272.801 105.990,273.246 106.717,273.789 107.349 C 274.333 107.981,274.884 108.836,275.016 109.249 C 275.147 109.662,275.422 110.000,275.627 110.000 C 275.832 110.000,276.000 110.270,276.000 110.600 C 276.000 110.930,276.180 111.200,276.400 111.200 C 276.620 111.200,276.800 111.470,276.800 111.800 C 276.800 112.130,276.950 112.400,277.132 112.400 C 277.315 112.400,277.720 112.895,278.032 113.500 C 278.345 114.105,278.780 114.794,279.000 115.030 C 279.220 115.267,281.110 118.098,283.200 121.321 C 285.290 124.545,287.090 127.186,287.201 127.191 C 287.404 127.200,288.570 124.723,292.044 116.900 C 292.508 115.855,293.048 114.687,293.244 114.305 C 293.440 113.923,293.600 113.338,293.600 113.005 C 293.600 112.672,293.780 112.400,294.000 112.400 C 294.220 112.400,294.400 112.158,294.400 111.861 C 294.400 111.565,294.650 110.800,294.956 110.161 C 295.475 109.078,296.170 107.502,297.406 104.600 C 300.133 98.201,301.845 94.244,302.684 92.400 C 304.145 89.190,305.028 87.207,305.801 85.400 C 306.178 84.520,306.936 82.810,307.486 81.600 C 309.400 77.387,310.103 75.795,310.400 75.000 C 310.564 74.560,311.063 73.390,311.508 72.400 C 311.953 71.410,312.586 69.970,312.915 69.200 C 313.922 66.845,318.846 55.506,319.647 53.700 C 320.061 52.765,320.777 51.145,321.238 50.100 C 323.788 44.316,324.249 43.607,326.143 42.555 C 327.296 41.914,330.603 41.881,331.686 42.500 M124.500 130.693 L 128.000 130.830 128.000 198.391 C 128.000 235.550,128.135 266.036,128.300 266.138 C 128.465 266.240,128.510 235.786,128.400 198.462 L 128.200 130.600 124.600 130.578 L 121.000 130.555 124.500 130.693 M113.091 131.089 C 113.801 131.177,115.061 131.179,115.891 131.092 C 116.721 131.005,116.140 130.933,114.600 130.931 C 113.060 130.929,112.381 131.000,113.091 131.089 M103.100 131.495 C 104.255 131.576,106.145 131.576,107.300 131.495 C 108.455 131.414,107.510 131.348,105.200 131.348 C 102.890 131.348,101.945 131.414,103.100 131.495 M96.307 131.890 C 97.026 131.979,98.106 131.977,98.707 131.886 C 99.308 131.795,98.720 131.722,97.400 131.724 C 96.080 131.726,95.588 131.801,96.307 131.890 M88.112 132.295 C 89.164 132.377,90.784 132.376,91.712 132.292 C 92.640 132.208,91.780 132.141,89.800 132.142 C 87.820 132.143,87.060 132.212,88.112 132.295 M82.505 132.687 C 83.114 132.779,84.014 132.777,84.505 132.682 C 84.997 132.587,84.500 132.511,83.400 132.514 C 82.300 132.517,81.897 132.595,82.505 132.687 M75.100 133.093 C 76.035 133.177,77.565 133.177,78.500 133.093 C 79.435 133.009,78.670 132.940,76.800 132.940 C 74.930 132.940,74.165 133.009,75.100 133.093 M69.500 133.482 C 69.995 133.578,70.805 133.578,71.300 133.482 C 71.795 133.387,71.390 133.309,70.400 133.309 C 69.410 133.309,69.005 133.387,69.500 133.482 M63.705 133.887 C 64.314 133.979,65.214 133.977,65.705 133.882 C 66.197 133.787,65.700 133.711,64.600 133.714 C 63.500 133.717,63.097 133.795,63.705 133.887 M60.100 134.276 C 60.485 134.376,61.115 134.376,61.500 134.276 C 61.885 134.175,61.570 134.093,60.800 134.093 C 60.030 134.093,59.715 134.175,60.100 134.276 M53.900 134.689 C 54.615 134.778,55.785 134.778,56.500 134.689 C 57.215 134.601,56.630 134.528,55.200 134.528 C 53.770 134.528,53.185 134.601,53.900 134.689 M38.575 141.250 C 37.752 142.125,37.652 142.347,38.241 141.991 C 38.967 141.551,40.243 140.000,39.878 140.000 C 39.808 140.000,39.221 140.563,38.575 141.250 M36.723 143.500 C 36.018 144.321,35.490 145.200,35.701 145.200 C 35.783 145.200,36.249 144.660,36.737 144.000 C 37.701 142.696,37.692 142.372,36.723 143.500 M32.120 159.200 C 32.120 160.410,32.195 160.905,32.287 160.300 C 32.378 159.695,32.378 158.705,32.287 158.100 C 32.195 157.495,32.120 157.990,32.120 159.200 M31.324 167.400 C 31.326 168.720,31.401 169.212,31.490 168.493 C 31.579 167.774,31.577 166.694,31.486 166.093 C 31.395 165.492,31.322 166.080,31.324 167.400 M232.098 216.900 L 232.197 265.800 232.300 217.077 C 232.378 180.471,232.518 168.425,232.863 168.639 C 233.148 168.815,233.215 168.747,233.038 168.462 C 232.881 168.208,232.583 168.000,232.376 168.000 C 232.143 168.000,232.037 186.542,232.098 216.900 M233.697 169.033 C 233.827 169.244,234.791 170.032,235.837 170.784 C 236.884 171.535,237.633 171.978,237.503 171.767 C 237.373 171.556,236.409 170.768,235.363 170.016 C 234.316 169.265,233.567 168.822,233.697 169.033 M30.520 177.200 C 30.520 178.410,30.595 178.905,30.687 178.300 C 30.778 177.695,30.778 176.705,30.687 176.100 C 30.595 175.495,30.520 175.990,30.520 177.200 M257.946 182.616 C 258.686 182.937,259.496 183.193,259.746 183.184 C 259.996 183.176,259.594 182.906,258.854 182.584 C 258.114 182.263,257.304 182.007,257.054 182.016 C 256.804 182.024,257.206 182.294,257.946 182.616 M29.724 187.400 C 29.726 188.720,29.801 189.212,29.890 188.493 C 29.979 187.774,29.977 186.694,29.886 186.093 C 29.795 185.492,29.722 186.080,29.724 187.400 M313.000 185.600 C 312.496 185.817,312.422 185.944,312.800 185.944 C 313.130 185.944,313.760 185.789,314.200 185.600 C 314.704 185.383,314.778 185.256,314.400 185.256 C 314.070 185.256,313.440 185.411,313.000 185.600 M330.476 187.000 C 330.460 187.880,330.595 189.320,330.777 190.200 C 331.230 192.388,331.261 190.244,330.818 187.400 C 330.513 185.441,330.506 185.433,330.476 187.000 M271.400 186.400 C 271.840 186.589,272.470 186.744,272.800 186.744 C 273.178 186.744,273.104 186.617,272.600 186.400 C 272.160 186.211,271.530 186.056,271.200 186.056 C 270.822 186.056,270.896 186.183,271.400 186.400 M309.400 186.400 C 308.896 186.617,308.822 186.744,309.200 186.744 C 309.530 186.744,310.160 186.589,310.600 186.400 C 311.104 186.183,311.178 186.056,310.800 186.056 C 310.470 186.056,309.840 186.211,309.400 186.400 M275.400 187.200 C 275.840 187.389,276.560 187.538,277.000 187.532 C 277.643 187.523,277.604 187.457,276.800 187.200 C 275.432 186.762,274.381 186.762,275.400 187.200 M305.000 187.200 C 303.911 187.477,303.893 187.507,304.800 187.525 C 305.350 187.535,306.160 187.389,306.600 187.200 C 307.586 186.776,306.666 186.776,305.000 187.200 M281.600 188.003 C 282.589 188.317,286.688 188.534,286.367 188.256 C 286.275 188.177,284.940 188.016,283.400 187.899 C 281.773 187.775,281.019 187.819,281.600 188.003 M297.000 188.000 L 295.000 188.274 297.000 188.290 C 298.100 188.298,299.540 188.168,300.200 188.000 L 301.400 187.695 300.200 187.710 C 299.540 187.719,298.100 187.849,297.000 188.000 M29.293 191.200 C 29.293 191.970,29.375 192.285,29.476 191.900 C 29.576 191.515,29.576 190.885,29.476 190.500 C 29.375 190.115,29.293 190.430,29.293 191.200 M331.302 199.200 C 331.294 200.190,331.421 202.080,331.585 203.400 C 331.855 205.580,331.884 205.635,331.898 204.000 C 331.906 203.010,331.779 201.120,331.615 199.800 C 331.345 197.620,331.316 197.565,331.302 199.200 M28.688 201.566 C 28.529 203.638,28.473 205.406,28.563 205.496 C 28.810 205.743,29.300 199.915,29.127 198.785 C 29.044 198.243,28.847 199.495,28.688 201.566 M28.077 214.600 C 28.031 216.140,27.913 218.660,27.814 220.200 L 27.634 223.000 28.030 220.200 C 28.247 218.660,28.365 216.140,28.292 214.600 L 28.159 211.800 28.077 214.600 M332.114 214.400 C 332.109 215.830,332.232 218.350,332.388 220.000 C 332.645 222.729,332.673 222.802,332.696 220.800 C 332.709 219.590,332.586 217.070,332.422 215.200 C 332.133 211.909,332.124 211.883,332.114 214.400 M332.962 239.400 C 332.962 242.920,333.024 244.306,333.098 242.481 C 333.172 240.656,333.172 237.776,333.097 236.081 C 333.022 234.386,332.961 235.880,332.962 239.400 M27.372 243.200 C 27.372 248.370,27.429 250.485,27.499 247.900 C 27.568 245.315,27.568 241.085,27.499 238.500 C 27.429 235.915,27.372 238.030,27.372 243.200 M183.233 242.130 C 183.325 242.201,184.030 242.666,184.800 243.163 L 186.200 244.066 185.000 243.035 C 184.340 242.468,183.635 242.003,183.433 242.002 C 183.232 242.001,183.142 242.058,183.233 242.130 M165.700 249.640 C 164.765 250.302,164.000 250.933,164.000 251.041 C 164.000 251.150,164.810 250.681,165.800 250.000 C 166.790 249.319,167.600 248.680,167.600 248.581 C 167.600 248.305,167.524 248.348,165.700 249.640 M192.800 248.562 C 192.800 248.672,193.610 249.319,194.600 250.000 C 195.590 250.681,196.400 251.148,196.400 251.038 C 196.400 250.928,195.590 250.281,194.600 249.600 C 193.610 248.919,192.800 248.452,192.800 248.562 M333.367 259.000 C 333.367 263.180,333.426 264.836,333.498 262.679 C 333.571 260.523,333.570 257.103,333.498 255.079 C 333.425 253.056,333.366 254.820,333.367 259.000 M204.405 256.680 C 204.408 256.856,205.038 257.407,205.805 257.904 C 207.603 259.068,207.600 258.800,205.800 257.427 C 205.030 256.840,204.402 256.503,204.405 256.680 M146.081 263.372 C 144.223 264.685,143.962 265.061,145.531 264.162 C 146.263 263.743,147.050 263.175,147.280 262.900 C 147.871 262.193,147.593 262.302,146.081 263.372 M212.800 262.570 C 212.800 262.680,213.880 263.504,215.200 264.400 C 216.520 265.296,217.600 265.940,217.600 265.830 C 217.600 265.720,216.520 264.896,215.200 264.000 C 213.880 263.104,212.800 262.460,212.800 262.570 M142.247 265.998 C 140.345 267.437,139.944 267.847,141.000 267.274 C 141.917 266.776,144.301 264.830,144.000 264.826 C 143.890 264.824,143.101 265.351,142.247 265.998 M27.372 275.000 C 27.372 280.060,27.429 282.075,27.499 279.477 C 27.569 276.880,27.568 272.740,27.498 270.277 C 27.428 267.815,27.371 269.940,27.372 275.000 M218.000 266.146 C 218.000 266.256,218.540 266.730,219.200 267.200 C 219.860 267.670,220.400 267.964,220.400 267.854 C 220.400 267.744,219.860 267.270,219.200 266.800 C 218.540 266.330,218.000 266.036,218.000 266.146 M332.961 278.800 C 332.961 282.210,333.022 283.605,333.097 281.900 C 333.172 280.195,333.172 277.405,333.097 275.700 C 333.022 273.995,332.961 275.390,332.961 278.800 M27.909 300.000 C 28.020 302.970,28.176 305.475,28.256 305.567 C 28.516 305.867,28.328 299.051,28.014 296.800 C 27.827 295.463,27.786 296.719,27.909 300.000 M332.528 297.600 C 332.528 299.030,332.601 299.615,332.689 298.900 C 332.778 298.185,332.778 297.015,332.689 296.300 C 332.601 295.585,332.528 296.170,332.528 297.600 M332.134 303.200 C 332.134 304.850,332.205 305.525,332.291 304.700 C 332.378 303.875,332.378 302.525,332.291 301.700 C 332.205 300.875,332.134 301.550,332.134 303.200 M331.720 314.000 C 331.720 315.210,331.795 315.705,331.887 315.100 C 331.978 314.495,331.978 313.505,331.887 312.900 C 331.795 312.295,331.720 312.790,331.720 314.000 M28.493 313.600 C 28.493 314.370,28.575 314.685,28.676 314.300 C 28.776 313.915,28.776 313.285,28.676 312.900 C 28.575 312.515,28.493 312.830,28.493 313.600 M28.928 317.600 C 28.928 319.030,29.001 319.615,29.089 318.900 C 29.178 318.185,29.178 317.015,29.089 316.300 C 29.001 315.585,28.928 316.170,28.928 317.600 M331.320 318.400 C 331.320 319.610,331.395 320.105,331.487 319.500 C 331.578 318.895,331.578 317.905,331.487 317.300 C 331.395 316.695,331.320 317.190,331.320 318.400 M29.293 326.400 C 29.293 327.170,29.375 327.485,29.476 327.100 C 29.576 326.715,29.576 326.085,29.476 325.700 C 29.375 325.315,29.293 325.630,29.293 326.400 M330.588 328.988 C 330.431 330.664,330.389 332.123,330.495 332.229 C 330.601 332.334,330.812 331.046,330.965 329.365 C 331.117 327.684,331.159 326.226,331.058 326.124 C 330.957 326.023,330.745 327.312,330.588 328.988 M29.728 330.400 C 29.728 331.830,29.801 332.415,29.889 331.700 C 29.978 330.985,29.978 329.815,29.889 329.100 C 29.801 328.385,29.728 328.970,29.728 330.400 M329.787 339.387 C 329.631 340.844,329.589 342.123,329.695 342.228 C 329.801 342.334,330.010 341.223,330.160 339.760 C 330.310 338.297,330.351 337.018,330.252 336.918 C 330.152 336.819,329.943 337.929,329.787 339.387 M30.520 340.400 C 30.520 341.610,30.595 342.105,30.687 341.500 C 30.778 340.895,30.778 339.905,30.687 339.300 C 30.595 338.695,30.520 339.190,30.520 340.400 M31.340 351.200 C 31.340 353.070,31.409 353.835,31.493 352.900 C 31.577 351.965,31.577 350.435,31.493 349.500 C 31.409 348.565,31.340 349.330,31.340 351.200 M328.914 350.200 C 328.917 351.300,328.995 351.703,329.087 351.095 C 329.179 350.486,329.177 349.586,329.082 349.095 C 328.987 348.603,328.911 349.100,328.914 350.200 M328.253 356.436 C 328.114 357.131,328.021 358.173,328.047 358.750 C 328.072 359.328,328.255 358.827,328.452 357.639 C 328.837 355.321,328.673 354.334,328.253 356.436 M327.378 364.178 C 327.227 364.981,327.194 365.727,327.304 365.837 C 327.414 365.947,327.627 365.381,327.778 364.578 C 327.928 363.775,327.962 363.028,327.852 362.918 C 327.742 362.808,327.528 363.375,327.378 364.178 M33.556 370.317 C 34.082 370.741,34.862 371.518,35.291 372.044 C 35.719 372.570,35.936 372.730,35.774 372.400 C 35.292 371.421,34.264 370.353,33.404 369.936 C 32.794 369.640,32.830 369.732,33.556 370.317 M321.217 376.585 L 319.033 379.000 321.398 376.714 C 322.698 375.457,323.681 374.371,323.581 374.300 C 323.482 374.229,322.417 375.257,321.217 376.585 M48.800 382.382 C 49.130 382.605,49.745 382.791,50.167 382.794 C 51.190 382.802,50.871 382.573,49.400 382.244 C 48.524 382.048,48.362 382.085,48.800 382.382 M52.900 383.076 C 53.285 383.176,53.915 383.176,54.300 383.076 C 54.685 382.975,54.370 382.893,53.600 382.893 C 52.830 382.893,52.515 382.975,52.900 383.076 M306.500 383.076 C 306.885 383.176,307.515 383.176,307.900 383.076 C 308.285 382.975,307.970 382.893,307.200 382.893 C 306.430 382.893,306.115 382.975,306.500 383.076 M57.491 383.489 C 58.201 383.577,59.461 383.579,60.291 383.492 C 61.121 383.405,60.540 383.333,59.000 383.331 C 57.460 383.329,56.781 383.400,57.491 383.489 M302.505 383.487 C 303.114 383.579,304.014 383.577,304.505 383.482 C 304.997 383.387,304.500 383.311,303.400 383.314 C 302.300 383.317,301.897 383.395,302.505 383.487 M63.700 383.876 C 64.085 383.976,64.715 383.976,65.100 383.876 C 65.485 383.775,65.170 383.693,64.400 383.693 C 63.630 383.693,63.315 383.775,63.700 383.876 M296.105 383.887 C 296.714 383.979,297.614 383.977,298.105 383.882 C 298.597 383.787,298.100 383.711,297.000 383.714 C 295.900 383.717,295.497 383.795,296.105 383.887 M67.300 384.287 C 67.905 384.378,68.895 384.378,69.500 384.287 C 70.105 384.195,69.610 384.120,68.400 384.120 C 67.190 384.120,66.695 384.195,67.300 384.287 M291.100 384.289 C 291.815 384.378,292.985 384.378,293.700 384.289 C 294.415 384.201,293.830 384.128,292.400 384.128 C 290.970 384.128,290.385 384.201,291.100 384.289 M74.105 384.687 C 74.714 384.779,75.614 384.777,76.105 384.682 C 76.597 384.587,76.100 384.511,75.000 384.514 C 73.900 384.517,73.497 384.595,74.105 384.687 M284.505 384.687 C 285.114 384.779,286.014 384.777,286.505 384.682 C 286.997 384.587,286.500 384.511,285.400 384.514 C 284.300 384.517,283.897 384.595,284.505 384.687 M78.291 385.089 C 79.001 385.177,80.261 385.179,81.091 385.092 C 81.921 385.005,81.340 384.933,79.800 384.931 C 78.260 384.929,77.581 385.000,78.291 385.089 M279.091 385.089 C 279.801 385.177,281.061 385.179,281.891 385.092 C 282.721 385.005,282.140 384.933,280.600 384.931 C 279.060 384.929,278.381 385.000,279.091 385.089 M86.500 385.487 C 87.105 385.578,88.095 385.578,88.700 385.487 C 89.305 385.395,88.810 385.320,87.600 385.320 C 86.390 385.320,85.895 385.395,86.500 385.487 M271.700 385.487 C 272.305 385.578,273.295 385.578,273.900 385.487 C 274.505 385.395,274.010 385.320,272.800 385.320 C 271.590 385.320,271.095 385.395,271.700 385.487 M93.300 385.894 C 94.345 385.976,96.055 385.976,97.100 385.894 C 98.145 385.812,97.290 385.744,95.200 385.744 C 93.110 385.744,92.255 385.812,93.300 385.894 M263.300 385.894 C 264.345 385.976,266.055 385.976,267.100 385.894 C 268.145 385.812,267.290 385.744,265.200 385.744 C 263.110 385.744,262.255 385.812,263.300 385.894 M101.907 386.290 C 102.626 386.379,103.706 386.377,104.307 386.286 C 104.908 386.195,104.320 386.122,103.000 386.124 C 101.680 386.126,101.188 386.201,101.907 386.290 M255.900 386.289 C 256.615 386.378,257.785 386.378,258.500 386.289 C 259.215 386.201,258.630 386.128,257.200 386.128 C 255.770 386.128,255.185 386.201,255.900 386.289 M109.300 386.696 C 110.565 386.775,112.635 386.775,113.900 386.696 C 115.165 386.616,114.130 386.551,111.600 386.551 C 109.070 386.551,108.035 386.616,109.300 386.696 M246.500 386.696 C 247.765 386.775,249.835 386.775,251.100 386.696 C 252.365 386.616,251.330 386.551,248.800 386.551 C 246.270 386.551,245.235 386.616,246.500 386.696 M120.311 387.093 C 121.251 387.178,122.691 387.177,123.511 387.091 C 124.330 387.005,123.560 386.936,121.800 386.937 C 120.040 386.939,119.370 387.009,120.311 387.093 M237.111 387.093 C 238.051 387.178,239.491 387.177,240.311 387.091 C 241.130 387.005,240.360 386.936,238.600 386.937 C 236.840 386.939,236.170 387.009,237.111 387.093 M130.300 387.498 C 132.335 387.571,135.665 387.571,137.700 387.498 C 139.735 387.425,138.070 387.366,134.000 387.366 C 129.930 387.366,128.265 387.425,130.300 387.498 M222.480 387.498 C 224.394 387.571,227.634 387.571,229.680 387.498 C 231.726 387.426,230.160 387.366,226.200 387.365 C 222.240 387.365,220.566 387.424,222.480 387.498 M148.918 387.898 C 150.633 387.973,153.333 387.972,154.918 387.897 C 156.503 387.821,155.100 387.759,151.800 387.760 C 148.500 387.761,147.203 387.822,148.918 387.898 M205.300 387.897 C 207.005 387.972,209.795 387.972,211.500 387.897 C 213.205 387.822,211.810 387.761,208.400 387.761 C 204.990 387.761,203.595 387.822,205.300 387.897 M177.717 388.297 C 179.211 388.374,181.551 388.374,182.917 388.296 C 184.282 388.218,183.060 388.155,180.200 388.155 C 177.340 388.156,176.222 388.220,177.717 388.297 " stroke="none" fill="#8bca53" fill-rule="evenodd"></path><path id="path2" d="M142.200 129.963 L 140.200 130.200 140.099 191.300 C 140.008 245.878,140.063 252.400,140.608 252.400 C 140.945 252.400,142.184 251.725,143.362 250.900 C 144.541 250.075,149.621 246.536,154.653 243.034 C 165.786 235.287,170.967 231.661,174.438 229.185 C 180.070 225.167,181.417 225.537,193.400 234.391 C 194.500 235.204,199.000 238.359,203.400 241.403 C 207.800 244.446,213.265 248.254,215.544 249.865 C 217.823 251.475,219.848 252.694,220.044 252.573 C 220.249 252.446,220.400 232.027,220.400 204.430 L 220.400 156.508 219.514 155.354 C 219.026 154.719,218.521 154.110,218.391 154.000 C 216.178 152.130,209.083 140.950,205.762 134.100 L 203.580 129.600 173.890 129.663 C 157.561 129.697,143.300 129.832,142.200 129.963 " stroke="none" fill="#db4b53" fill-rule="evenodd"></path><path id="path3" d="M116.200 131.052 C 115.540 131.120,110.680 131.364,105.400 131.594 C 100.120 131.823,92.920 132.184,89.400 132.394 C 85.880 132.604,79.850 132.958,76.000 133.180 C 49.144 134.730,44.776 135.662,39.397 140.989 C 34.305 146.031,33.403 148.628,32.030 162.200 C 31.670 165.758,31.416 168.532,30.583 178.000 C 26.379 225.767,26.457 291.796,30.775 341.600 C 31.580 350.878,31.702 353.138,31.454 354.128 C 30.937 356.186,27.891 358.800,26.009 358.800 C 25.248 358.800,25.200 361.852,25.894 366.115 C 26.388 369.152,26.707 369.417,29.716 369.280 C 32.811 369.139,34.143 369.883,36.143 372.868 C 40.990 380.103,45.952 382.429,58.200 383.208 C 61.720 383.432,65.140 383.700,65.800 383.804 C 68.551 384.238,88.651 385.404,110.800 386.413 C 153.229 388.347,208.175 388.346,249.600 386.412 C 269.437 385.485,275.366 385.180,281.000 384.797 C 312.344 382.665,310.992 382.826,315.600 380.657 C 318.182 379.441,323.110 375.036,324.339 372.845 C 327.456 367.291,327.431 367.438,329.603 342.600 C 333.509 297.958,334.107 243.141,331.195 196.800 C 330.953 192.950,330.630 187.789,330.477 185.332 C 330.132 179.776,330.415 179.971,325.509 181.901 C 321.211 183.593,314.685 185.553,310.600 186.379 C 309.280 186.646,307.480 187.020,306.600 187.209 C 299.617 188.712,281.783 188.519,273.600 186.851 C 272.610 186.649,270.730 186.269,269.422 186.007 C 261.987 184.517,244.605 177.413,242.000 174.799 C 241.890 174.689,241.350 174.366,240.800 174.082 C 240.250 173.799,238.180 172.408,236.200 170.992 L 232.600 168.418 232.400 217.109 C 232.175 271.770,232.419 267.743,229.231 269.534 C 226.131 271.277,224.721 270.891,218.505 266.599 C 215.477 264.508,211.110 261.509,208.800 259.934 C 206.490 258.358,204.510 256.955,204.400 256.816 C 204.290 256.676,201.860 254.963,199.000 253.010 C 196.140 251.056,192.900 248.823,191.800 248.047 C 190.700 247.271,188.360 245.645,186.600 244.435 C 184.840 243.225,183.340 242.091,183.267 241.917 C 183.193 241.743,182.961 241.600,182.750 241.600 C 182.539 241.600,181.980 241.240,181.508 240.800 C 181.036 240.360,180.447 240.000,180.200 240.000 C 179.953 240.000,179.364 240.360,178.892 240.800 C 178.420 241.240,177.846 241.600,177.617 241.600 C 177.388 241.600,177.200 241.780,177.200 242.000 C 177.200 242.220,176.945 242.400,176.633 242.400 C 176.322 242.400,176.007 242.549,175.933 242.730 C 175.860 242.912,174.384 244.037,172.653 245.230 C 170.921 246.424,169.117 247.670,168.643 248.000 C 168.168 248.330,165.445 250.213,162.590 252.184 C 159.736 254.154,157.340 255.909,157.267 256.084 C 157.193 256.258,156.912 256.400,156.642 256.400 C 156.372 256.400,155.802 256.725,155.375 257.123 C 154.949 257.520,152.910 259.005,150.846 260.423 C 148.781 261.840,146.171 263.646,145.046 264.436 C 135.603 271.062,134.182 271.575,131.015 269.500 C 127.712 267.335,128.000 274.150,128.000 198.162 L 128.000 130.800 122.700 130.864 C 119.785 130.899,116.860 130.984,116.200 131.052 " stroke="none" fill="#f3db44" fill-rule="evenodd"></path><path id="path4" d="M282.000 12.207 C 279.690 12.475,277.170 12.821,276.400 12.975 C 271.014 14.055,263.913 16.104,260.800 17.477 C 260.030 17.817,258.770 18.364,258.000 18.692 C 251.680 21.387,244.764 25.547,239.605 29.756 C 190.871 69.519,201.122 144.367,258.800 169.914 C 264.446 172.415,275.699 175.531,275.000 174.400 C 274.864 174.180,274.434 174.000,274.044 174.000 C 270.849 174.000,255.766 163.724,248.796 156.800 C 206.881 115.155,217.041 43.976,268.818 16.539 C 278.854 11.220,296.818 10.674,312.600 15.206 C 313.480 15.459,314.697 15.762,315.305 15.879 C 315.913 15.996,316.508 16.251,316.629 16.446 C 316.749 16.641,317.179 16.800,317.584 16.800 C 319.773 16.800,331.319 22.490,336.520 26.132 C 337.830 27.049,339.194 27.980,339.551 28.200 C 339.908 28.420,340.290 28.692,340.400 28.805 C 340.510 28.919,341.590 29.811,342.800 30.788 C 345.623 33.069,351.776 39.218,353.818 41.799 C 354.688 42.899,355.619 44.031,355.886 44.314 C 356.153 44.597,356.687 45.363,357.072 46.015 C 357.457 46.667,357.914 47.200,358.086 47.200 C 358.259 47.200,358.400 47.470,358.400 47.800 C 358.400 48.130,358.580 48.400,358.800 48.400 C 359.020 48.400,359.200 48.670,359.200 49.000 C 359.200 49.330,359.380 49.600,359.600 49.600 C 359.820 49.600,360.000 49.793,360.000 50.028 C 360.000 50.263,360.511 51.208,361.136 52.128 C 363.887 56.175,368.867 68.017,370.083 73.400 C 371.075 77.798,371.266 78.783,371.564 81.045 C 371.741 82.391,372.012 83.695,372.166 83.945 C 372.636 84.706,372.505 102.285,372.008 105.143 C 371.062 110.577,370.515 113.043,369.199 117.800 C 367.833 122.733,364.815 129.741,361.657 135.312 C 361.186 136.144,360.821 137.224,360.846 137.712 C 360.885 138.458,360.924 138.480,361.085 137.853 C 361.190 137.443,362.401 134.923,363.775 132.253 C 366.706 126.560,368.391 122.499,369.606 118.200 C 372.430 108.206,372.968 104.343,372.970 94.000 C 372.973 84.407,372.803 82.898,370.723 74.000 C 370.180 71.676,368.086 65.205,367.586 64.305 C 367.374 63.923,367.200 63.411,367.200 63.167 C 367.200 61.142,359.115 47.477,354.795 42.200 C 346.236 31.744,331.914 21.214,321.130 17.448 C 320.178 17.116,318.320 16.454,317.000 15.978 C 306.855 12.320,293.454 10.876,282.000 12.207 M326.143 42.555 C 324.249 43.607,323.788 44.316,321.238 50.100 C 320.777 51.145,320.061 52.765,319.647 53.700 C 319.232 54.635,317.683 58.190,316.203 61.600 C 314.724 65.010,313.239 68.391,312.904 69.114 C 312.569 69.837,312.404 70.537,312.536 70.670 C 312.669 70.802,312.975 70.391,313.216 69.755 C 313.624 68.680,317.372 60.080,319.821 54.600 C 320.116 53.940,321.183 51.517,322.193 49.215 C 324.666 43.579,325.865 42.400,329.121 42.400 C 333.966 42.400,335.897 47.061,333.370 52.659 C 332.789 53.947,332.043 55.630,331.712 56.400 C 331.381 57.170,330.590 58.933,329.955 60.318 C 329.320 61.703,328.800 62.920,328.800 63.022 C 328.800 63.125,328.450 63.972,328.022 64.904 C 325.640 70.096,323.612 74.946,323.761 75.095 C 323.855 75.188,324.236 74.575,324.607 73.732 C 324.979 72.890,325.624 71.435,326.042 70.500 C 326.459 69.565,327.160 67.990,327.600 67.000 C 328.040 66.010,328.741 64.435,329.158 63.500 C 329.576 62.565,330.187 61.170,330.516 60.400 C 330.846 59.630,331.473 58.190,331.911 57.200 C 335.461 49.165,335.703 48.193,334.777 45.726 C 333.636 42.684,328.984 40.976,326.143 42.555 M311.393 72.668 C 311.022 73.510,310.580 74.560,310.410 75.000 C 310.099 75.805,309.331 77.540,307.486 81.600 C 306.936 82.810,306.178 84.520,305.801 85.400 C 305.028 87.207,304.145 89.190,302.684 92.400 C 302.134 93.610,300.836 96.580,299.800 99.000 C 298.765 101.420,297.643 103.991,297.306 104.714 C 296.970 105.437,296.804 106.137,296.936 106.270 C 297.069 106.402,297.375 105.991,297.616 105.355 C 298.050 104.212,300.934 97.598,304.400 89.800 C 306.320 85.479,306.861 84.251,309.574 78.053 C 311.150 74.453,312.356 71.423,312.254 71.321 C 312.152 71.219,311.765 71.825,311.393 72.668 M321.612 79.493 C 320.007 83.166,319.513 84.286,317.647 88.500 C 317.233 89.435,316.313 91.550,315.603 93.200 C 314.893 94.850,314.071 96.740,313.777 97.400 C 309.736 106.445,306.444 114.178,306.577 114.311 C 306.730 114.464,307.517 112.860,309.084 109.200 C 309.413 108.430,310.024 107.035,310.442 106.100 C 310.859 105.165,311.560 103.590,312.000 102.600 C 312.440 101.610,313.140 100.035,313.556 99.100 C 313.971 98.165,314.871 96.177,315.556 94.682 C 316.240 93.187,316.800 91.880,316.800 91.778 C 316.800 91.675,317.144 90.828,317.565 89.896 C 317.985 88.963,318.991 86.670,319.800 84.800 C 322.139 79.392,322.363 78.879,323.052 77.386 C 323.411 76.608,323.618 75.885,323.512 75.779 C 323.407 75.673,322.552 77.345,321.612 79.493 M250.363 82.130 C 247.281 83.756,245.995 87.283,247.455 90.107 C 248.083 91.321,270.737 125.589,271.184 126.000 C 271.304 126.110,271.656 126.695,271.968 127.300 C 272.280 127.905,272.685 128.400,272.868 128.400 C 273.050 128.400,273.200 128.636,273.200 128.925 C 273.200 129.213,273.515 129.798,273.900 130.225 C 274.285 130.651,274.855 131.495,275.168 132.100 C 275.480 132.705,275.885 133.200,276.068 133.200 C 276.250 133.200,276.400 133.470,276.400 133.800 C 276.400 134.130,276.580 134.400,276.800 134.400 C 277.020 134.400,277.202 134.625,277.205 134.900 C 277.208 135.175,277.572 135.850,278.013 136.400 C 278.454 136.950,279.892 139.053,281.208 141.073 C 286.088 148.565,291.383 149.024,294.559 142.229 C 297.437 136.074,298.000 134.831,298.000 134.637 C 298.000 134.520,298.430 133.473,298.955 132.312 C 302.696 124.041,304.066 120.732,303.842 120.508 C 303.721 120.388,303.459 120.719,303.259 121.245 C 302.751 122.578,301.869 124.651,300.809 127.000 C 300.313 128.100,299.677 129.540,299.396 130.200 C 299.114 130.860,298.486 132.300,298.000 133.400 C 297.514 134.500,296.840 136.030,296.504 136.800 C 292.853 145.158,292.021 146.141,288.562 146.178 C 285.175 146.214,285.400 146.490,269.895 123.253 C 261.875 111.234,253.647 98.918,251.611 95.884 C 246.660 88.508,246.280 86.520,249.253 83.547 C 250.641 82.159,251.008 82.000,252.820 82.000 C 256.176 82.000,256.666 82.473,262.651 91.495 C 265.682 96.063,268.260 99.890,268.380 100.000 C 268.501 100.110,272.740 106.450,277.800 114.090 C 287.959 129.427,287.294 128.659,288.375 126.300 C 293.012 116.190,294.545 112.400,294.000 112.400 C 293.780 112.400,293.600 112.672,293.600 113.005 C 293.600 113.338,293.440 113.923,293.244 114.305 C 293.048 114.687,292.508 115.855,292.044 116.900 C 288.570 124.723,287.404 127.200,287.201 127.191 C 287.090 127.186,285.290 124.545,283.200 121.321 C 281.110 118.098,279.220 115.267,279.000 115.030 C 278.780 114.794,278.345 114.105,278.032 113.500 C 277.720 112.895,277.315 112.400,277.132 112.400 C 276.950 112.400,276.800 112.130,276.800 111.800 C 276.800 111.470,276.620 111.200,276.400 111.200 C 276.180 111.200,276.000 110.930,276.000 110.600 C 276.000 110.270,275.832 110.000,275.627 110.000 C 275.422 110.000,275.147 109.662,275.016 109.249 C 274.884 108.836,274.333 107.981,273.789 107.349 C 273.246 106.717,272.801 105.990,272.800 105.733 C 272.800 105.477,272.665 105.207,272.500 105.133 C 272.335 105.060,268.977 100.140,265.037 94.200 C 257.826 83.327,257.231 82.588,255.014 81.730 C 253.199 81.028,252.306 81.105,250.363 82.130 M295.985 107.839 C 295.745 108.471,295.266 109.582,294.922 110.308 C 294.577 111.034,294.383 111.717,294.491 111.824 C 294.599 111.932,295.168 110.911,295.756 109.556 C 296.343 108.200,296.734 107.001,296.623 106.890 C 296.513 106.779,296.226 107.206,295.985 107.839 M305.082 117.232 C 304.476 118.597,304.062 119.795,304.161 119.895 C 304.412 120.145,306.463 115.590,306.309 115.126 C 306.240 114.920,305.688 115.867,305.082 117.232 M115.113 130.695 C 116.276 130.776,118.076 130.776,119.113 130.693 C 120.151 130.611,119.200 130.545,117.000 130.546 C 114.800 130.547,113.951 130.614,115.113 130.695 M108.707 131.090 C 109.426 131.179,110.506 131.177,111.107 131.086 C 111.708 130.995,111.120 130.922,109.800 130.924 C 108.480 130.926,107.988 131.001,108.707 131.090 M96.900 131.491 C 97.725 131.578,99.075 131.578,99.900 131.491 C 100.725 131.405,100.050 131.334,98.400 131.334 C 96.750 131.334,96.075 131.405,96.900 131.491 M91.907 131.890 C 92.626 131.979,93.706 131.977,94.307 131.886 C 94.908 131.795,94.320 131.722,93.000 131.724 C 91.680 131.726,91.188 131.801,91.907 131.890 M83.107 132.290 C 83.826 132.379,84.906 132.377,85.507 132.286 C 86.108 132.195,85.520 132.122,84.200 132.124 C 82.880 132.126,82.388 132.201,83.107 132.290 M78.905 132.687 C 79.514 132.779,80.414 132.777,80.905 132.682 C 81.397 132.587,80.900 132.511,79.800 132.514 C 78.700 132.517,78.297 132.595,78.905 132.687 M70.500 133.087 C 71.105 133.178,72.095 133.178,72.700 133.087 C 73.305 132.995,72.810 132.920,71.600 132.920 C 70.390 132.920,69.895 132.995,70.500 133.087 M66.300 133.482 C 66.795 133.578,67.605 133.578,68.100 133.482 C 68.595 133.387,68.190 133.309,67.200 133.309 C 66.210 133.309,65.805 133.387,66.300 133.482 M57.000 134.000 L 55.000 134.274 57.000 134.302 C 58.100 134.317,59.900 134.190,61.000 134.018 L 63.000 133.707 61.000 133.716 C 59.900 133.721,58.100 133.849,57.000 134.000 M49.800 134.800 L 49.000 135.144 49.800 135.125 C 50.240 135.114,51.140 134.968,51.800 134.800 L 53.000 134.495 51.800 134.475 C 51.140 134.465,50.240 134.611,49.800 134.800 M46.800 135.600 C 46.267 135.945,46.267 135.988,46.800 135.988 C 47.130 135.988,47.670 135.813,48.000 135.600 C 48.533 135.255,48.533 135.212,48.000 135.212 C 47.670 135.212,47.130 135.387,46.800 135.600 M39.389 140.231 L 37.400 142.061 39.500 140.368 C 41.384 138.849,41.838 138.400,41.489 138.400 C 41.428 138.400,40.483 139.224,39.389 140.231 M360.825 140.505 C 360.794 141.367,361.499 142.642,362.700 143.896 C 363.893 145.142,363.847 144.671,362.620 143.061 C 362.081 142.354,361.462 141.331,361.245 140.788 C 360.963 140.081,360.844 140.001,360.825 140.505 M34.181 147.237 C 33.829 147.918,33.612 148.545,33.699 148.632 C 33.786 148.719,34.156 148.162,34.522 147.395 C 35.344 145.670,35.059 145.538,34.181 147.237 M33.073 149.753 C 32.923 150.145,32.811 150.766,32.825 151.133 C 32.842 151.575,32.981 151.474,33.237 150.834 C 33.449 150.303,33.561 149.682,33.485 149.454 C 33.409 149.227,33.224 149.361,33.073 149.753 M349.200 152.052 C 348.430 152.519,347.710 153.016,347.600 153.158 C 347.490 153.300,346.050 154.582,344.400 156.008 C 342.750 157.433,341.310 158.711,341.200 158.847 C 339.887 160.466,326.241 168.141,320.600 170.432 C 318.277 171.376,312.395 173.200,311.676 173.200 C 311.220 173.200,310.736 173.380,310.600 173.600 C 310.464 173.820,309.654 174.000,308.800 174.000 C 307.946 174.000,307.136 174.180,307.000 174.400 C 306.641 174.981,307.479 174.897,310.825 174.018 C 316.611 172.497,320.930 170.958,326.400 168.468 C 332.314 165.775,343.657 157.963,347.400 154.004 C 349.674 151.598,352.142 151.070,354.894 152.400 C 355.805 152.840,356.831 153.198,357.175 153.196 C 357.519 153.194,356.837 152.744,355.660 152.196 C 353.043 150.978,351.045 150.933,349.200 152.052 M32.269 153.556 C 32.121 154.295,32.021 155.463,32.047 156.150 C 32.079 157.012,32.205 156.725,32.455 155.223 C 32.853 152.821,32.697 151.417,32.269 153.556 M31.392 161.738 C 31.239 163.169,31.194 164.578,31.293 164.870 C 31.391 165.161,31.603 164.078,31.764 162.461 C 31.925 160.845,31.969 159.436,31.863 159.330 C 31.757 159.224,31.545 160.308,31.392 161.738 M30.692 169.600 C 30.535 170.810,30.429 172.610,30.457 173.600 C 30.493 174.904,30.603 174.517,30.855 172.200 C 31.258 168.511,31.119 166.305,30.692 169.600 M236.800 170.946 C 236.800 171.056,237.340 171.530,238.000 172.000 C 238.660 172.470,239.200 172.764,239.200 172.654 C 239.200 172.544,238.660 172.070,238.000 171.600 C 237.340 171.130,236.800 170.836,236.800 170.946 M240.200 173.407 C 240.640 173.766,241.360 174.235,241.800 174.451 L 242.600 174.844 241.800 174.193 C 241.360 173.834,240.640 173.365,240.200 173.149 L 239.400 172.756 240.200 173.407 M243.200 175.220 C 244.587 176.161,245.378 176.435,244.400 175.636 C 243.850 175.186,243.220 174.817,243.000 174.815 C 242.780 174.813,242.870 174.996,243.200 175.220 M276.600 175.200 C 278.463 175.674,280.333 175.674,279.600 175.200 C 279.270 174.987,278.190 174.831,277.200 174.853 C 275.558 174.891,275.506 174.922,276.600 175.200 M302.400 175.200 C 301.634 175.695,302.673 175.704,305.000 175.223 L 306.600 174.892 304.800 174.852 C 303.810 174.830,302.730 174.987,302.400 175.200 M282.600 176.048 C 285.676 176.388,295.823 176.385,299.200 176.043 C 300.630 175.898,296.940 175.780,291.000 175.781 C 285.060 175.781,281.280 175.901,282.600 176.048 M29.867 178.760 C 29.720 180.167,29.625 182.236,29.656 183.359 C 29.689 184.593,29.847 183.740,30.056 181.200 C 30.435 176.568,30.291 174.703,29.867 178.760 M330.524 183.400 C 330.526 184.720,330.601 185.212,330.690 184.493 C 330.779 183.774,330.777 182.694,330.686 182.093 C 330.595 181.492,330.522 182.080,330.524 183.400 M268.600 185.600 C 269.040 185.789,269.670 185.944,270.000 185.944 C 270.378 185.944,270.304 185.817,269.800 185.600 C 269.360 185.411,268.730 185.256,268.400 185.256 C 268.022 185.256,268.096 185.383,268.600 185.600 M272.600 186.400 C 273.040 186.589,273.670 186.744,274.000 186.744 C 274.378 186.744,274.304 186.617,273.800 186.400 C 273.360 186.211,272.730 186.056,272.400 186.056 C 272.022 186.056,272.096 186.183,272.600 186.400 M330.901 187.400 C 330.905 188.280,330.987 188.593,331.083 188.095 C 331.179 187.598,331.175 186.878,331.075 186.495 C 330.975 186.113,330.896 186.520,330.901 187.400 M29.314 188.200 C 29.317 189.300,29.395 189.703,29.487 189.095 C 29.579 188.486,29.577 187.586,29.482 187.095 C 29.387 186.603,29.311 187.100,29.314 188.200 M276.800 187.200 C 277.350 187.376,278.250 187.517,278.800 187.513 C 279.698 187.506,279.678 187.474,278.600 187.200 C 276.908 186.769,275.456 186.769,276.800 187.200 M283.100 187.882 C 283.595 187.978,284.405 187.978,284.900 187.882 C 285.395 187.787,284.990 187.709,284.000 187.709 C 283.010 187.709,282.605 187.787,283.100 187.882 M296.900 187.876 C 297.285 187.976,297.915 187.976,298.300 187.876 C 298.685 187.775,298.370 187.693,297.600 187.693 C 296.830 187.693,296.515 187.775,296.900 187.876 M288.500 188.296 C 289.765 188.375,291.835 188.375,293.100 188.296 C 294.365 188.216,293.330 188.151,290.800 188.151 C 288.270 188.151,287.235 188.216,288.500 188.296 M28.944 194.400 C 28.944 196.490,29.012 197.345,29.094 196.300 C 29.176 195.255,29.176 193.545,29.094 192.500 C 29.012 191.455,28.944 192.310,28.944 194.400 M331.320 195.600 C 331.320 196.810,331.395 197.305,331.487 196.700 C 331.578 196.095,331.578 195.105,331.487 194.500 C 331.395 193.895,331.320 194.390,331.320 195.600 M331.714 199.800 C 331.717 200.900,331.795 201.303,331.887 200.695 C 331.979 200.086,331.977 199.186,331.882 198.695 C 331.787 198.203,331.711 198.700,331.714 199.800 M28.520 200.800 C 28.520 202.010,28.595 202.505,28.687 201.900 C 28.778 201.295,28.778 200.305,28.687 199.700 C 28.595 199.095,28.520 199.590,28.520 200.800 M28.151 207.600 C 28.151 210.130,28.216 211.165,28.296 209.900 C 28.375 208.635,28.375 206.565,28.296 205.300 C 28.216 204.035,28.151 205.070,28.151 207.600 M332.131 209.400 C 332.133 210.940,332.205 211.521,332.292 210.691 C 332.379 209.861,332.377 208.601,332.289 207.891 C 332.200 207.181,332.129 207.860,332.131 209.400 M332.531 215.000 C 332.533 216.540,332.605 217.121,332.692 216.291 C 332.779 215.461,332.777 214.201,332.689 213.491 C 332.600 212.781,332.529 213.460,332.531 215.000 M27.737 216.200 C 27.739 217.960,27.809 218.630,27.893 217.689 C 27.978 216.749,27.977 215.309,27.891 214.489 C 27.805 213.670,27.736 214.440,27.737 216.200 M27.366 226.800 C 27.366 230.870,27.425 232.535,27.498 230.500 C 27.571 228.465,27.571 225.135,27.498 223.100 C 27.425 221.065,27.366 222.730,27.366 226.800 M332.951 228.800 C 332.951 231.330,333.016 232.365,333.096 231.100 C 333.175 229.835,333.175 227.765,333.096 226.500 C 333.016 225.235,332.951 226.270,332.951 228.800 M333.369 243.600 C 333.369 248.110,333.427 249.955,333.498 247.700 C 333.570 245.445,333.570 241.755,333.498 239.500 C 333.427 237.245,333.369 239.090,333.369 243.600 M26.986 259.000 C 26.987 270.880,27.038 275.682,27.100 269.672 C 27.162 263.661,27.162 253.941,27.100 248.072 C 27.037 242.202,26.986 247.120,26.986 259.000 M173.300 244.040 C 172.365 244.702,171.600 245.333,171.600 245.441 C 171.600 245.550,172.410 245.081,173.400 244.400 C 174.390 243.719,175.200 243.080,175.200 242.981 C 175.200 242.705,175.124 242.748,173.300 244.040 M185.200 242.946 C 185.200 243.056,185.740 243.530,186.400 244.000 C 187.060 244.470,187.600 244.764,187.600 244.654 C 187.600 244.544,187.060 244.070,186.400 243.600 C 185.740 243.130,185.200 242.836,185.200 242.946 M163.000 251.232 C 160.627 253.026,160.308 253.532,162.533 251.972 C 164.214 250.794,165.129 249.975,164.724 250.011 C 164.656 250.017,163.880 250.567,163.000 251.232 M195.779 250.366 C 196.080 250.852,199.600 253.332,199.600 253.057 C 199.600 252.957,198.681 252.215,197.558 251.408 C 196.435 250.601,195.635 250.132,195.779 250.366 M206.400 257.762 C 206.400 257.872,207.210 258.519,208.200 259.200 C 209.190 259.881,210.000 260.348,210.000 260.238 C 210.000 260.128,209.190 259.481,208.200 258.800 C 207.210 258.119,206.400 257.652,206.400 257.762 M150.900 259.640 C 149.965 260.302,149.200 260.933,149.200 261.041 C 149.200 261.150,150.010 260.681,151.000 260.000 C 151.990 259.319,152.800 258.680,152.800 258.581 C 152.800 258.305,152.724 258.348,150.900 259.640 M216.800 264.946 C 216.800 265.056,217.340 265.530,218.000 266.000 C 218.660 266.470,219.200 266.764,219.200 266.654 C 219.200 266.544,218.660 266.070,218.000 265.600 C 217.340 265.130,216.800 264.836,216.800 264.946 M333.369 274.400 C 333.369 278.910,333.427 280.755,333.498 278.500 C 333.570 276.245,333.570 272.555,333.498 270.300 C 333.427 268.045,333.369 269.890,333.369 274.400 M132.538 270.094 C 132.792 270.256,133.540 270.388,134.200 270.388 C 134.860 270.388,135.608 270.256,135.862 270.094 C 136.116 269.932,135.368 269.800,134.200 269.800 C 133.032 269.800,132.284 269.932,132.538 270.094 M224.400 270.005 C 224.730 270.216,225.525 270.391,226.167 270.394 C 227.714 270.402,227.377 270.171,225.400 269.868 C 224.310 269.701,223.991 269.745,224.400 270.005 M27.365 291.000 C 27.366 294.960,27.426 296.526,27.498 294.480 C 27.571 292.434,27.571 289.194,27.498 287.280 C 27.424 285.366,27.365 287.040,27.365 291.000 M332.951 289.200 C 332.951 291.730,333.016 292.765,333.096 291.500 C 333.175 290.235,333.175 288.165,333.096 286.900 C 333.016 285.635,332.951 286.670,332.951 289.200 M27.737 301.400 C 27.739 303.160,27.809 303.830,27.893 302.889 C 27.978 301.949,27.977 300.509,27.891 299.689 C 27.805 298.870,27.736 299.640,27.737 301.400 M332.534 302.800 C 332.534 304.450,332.605 305.125,332.691 304.300 C 332.778 303.475,332.778 302.125,332.691 301.300 C 332.605 300.475,332.534 301.150,332.534 302.800 M28.043 309.833 C 28.067 312.235,28.219 315.280,28.381 316.600 C 28.545 317.939,28.590 316.081,28.482 312.400 C 28.263 304.911,27.978 303.243,28.043 309.833 M332.131 308.600 C 332.133 310.140,332.205 310.721,332.292 309.891 C 332.379 309.061,332.377 307.801,332.289 307.091 C 332.200 306.381,332.129 307.060,332.131 308.600 M331.714 317.800 C 331.717 318.900,331.795 319.303,331.887 318.695 C 331.979 318.086,331.977 317.186,331.882 316.695 C 331.787 316.203,331.711 316.700,331.714 317.800 M28.944 323.600 C 28.944 325.690,29.012 326.545,29.094 325.500 C 29.176 324.455,29.176 322.745,29.094 321.700 C 29.012 320.655,28.944 321.510,28.944 323.600 M331.320 322.400 C 331.320 323.610,331.395 324.105,331.487 323.500 C 331.578 322.895,331.578 321.905,331.487 321.300 C 331.395 320.695,331.320 321.190,331.320 322.400 M29.314 329.400 C 29.317 330.500,29.395 330.903,29.487 330.295 C 29.579 329.686,29.577 328.786,29.482 328.295 C 29.387 327.803,29.311 328.300,29.314 329.400 M330.901 330.200 C 330.905 331.080,330.987 331.393,331.083 330.895 C 331.179 330.398,331.175 329.678,331.075 329.295 C 330.975 328.913,330.896 329.320,330.901 330.200 M330.520 334.400 C 330.520 335.610,330.595 336.105,330.687 335.500 C 330.778 334.895,330.778 333.905,330.687 333.300 C 330.595 332.695,330.520 333.190,330.520 334.400 M29.635 335.033 C 29.654 336.335,29.816 338.300,29.994 339.400 C 30.213 340.749,30.249 340.032,30.105 337.200 C 29.873 332.611,29.579 331.258,29.635 335.033 M330.093 340.400 C 330.093 341.170,330.175 341.485,330.276 341.100 C 330.376 340.715,330.376 340.085,330.276 339.700 C 330.175 339.315,330.093 339.630,330.093 340.400 M30.430 344.433 C 30.446 345.625,30.608 347.410,30.790 348.400 C 31.018 349.634,31.054 349.005,30.906 346.400 C 30.669 342.212,30.383 341.031,30.430 344.433 M329.709 344.000 C 329.709 344.990,329.787 345.395,329.882 344.900 C 329.978 344.405,329.978 343.595,329.882 343.100 C 329.787 342.605,329.709 343.010,329.709 344.000 M329.293 349.200 C 329.293 349.970,329.375 350.285,329.476 349.900 C 329.576 349.515,329.576 348.885,329.476 348.500 C 329.375 348.115,329.293 348.430,329.293 349.200 M328.909 353.600 C 328.909 354.590,328.987 354.995,329.082 354.500 C 329.178 354.005,329.178 353.195,329.082 352.700 C 328.987 352.205,328.909 352.610,328.909 353.600 M30.617 354.745 C 30.477 355.188,29.734 356.102,28.967 356.775 C 28.200 357.449,27.724 358.000,27.911 358.000 C 28.736 358.000,31.543 354.609,31.091 354.157 C 30.971 354.038,30.758 354.302,30.617 354.745 M328.114 361.400 C 328.117 362.500,328.195 362.903,328.287 362.295 C 328.379 361.686,328.377 360.786,328.282 360.295 C 328.187 359.803,328.111 360.300,328.114 361.400 M38.974 377.093 C 39.840 378.024,40.635 378.699,40.741 378.593 C 40.847 378.487,40.856 378.355,40.762 378.300 C 40.668 378.245,39.873 377.570,38.996 376.801 L 37.400 375.401 38.974 377.093 M321.178 377.100 L 319.800 378.600 321.300 377.222 C 322.125 376.463,322.800 375.788,322.800 375.722 C 322.800 375.416,322.462 375.704,321.178 377.100 M51.400 383.194 C 52.613 383.509,56.675 383.722,56.367 383.456 C 56.275 383.376,54.850 383.215,53.200 383.097 C 51.442 382.972,50.697 383.012,51.400 383.194 M305.905 383.483 C 306.402 383.579,307.122 383.575,307.505 383.475 C 307.887 383.375,307.480 383.296,306.600 383.301 C 305.720 383.305,305.407 383.387,305.905 383.483 M61.400 384.018 C 62.500 384.190,64.120 384.322,65.000 384.312 C 66.551 384.294,66.539 384.284,64.600 383.982 C 63.500 383.810,61.880 383.678,61.000 383.688 C 59.449 383.706,59.461 383.716,61.400 384.018 M299.500 383.882 C 299.995 383.978,300.805 383.978,301.300 383.882 C 301.795 383.787,301.390 383.709,300.400 383.709 C 299.410 383.709,299.005 383.787,299.500 383.882 M295.705 384.287 C 296.314 384.379,297.214 384.377,297.705 384.282 C 298.197 384.187,297.700 384.111,296.600 384.114 C 295.500 384.117,295.097 384.195,295.705 384.287 M70.505 384.687 C 71.114 384.779,72.014 384.777,72.505 384.682 C 72.997 384.587,72.500 384.511,71.400 384.514 C 70.300 384.517,69.897 384.595,70.505 384.687 M288.105 384.687 C 288.714 384.779,289.614 384.777,290.105 384.682 C 290.597 384.587,290.100 384.511,289.000 384.514 C 287.900 384.517,287.497 384.595,288.105 384.687 M74.505 385.087 C 75.114 385.179,76.014 385.177,76.505 385.082 C 76.997 384.987,76.500 384.911,75.400 384.914 C 74.300 384.917,73.897 384.995,74.505 385.087 M284.105 385.087 C 284.714 385.179,285.614 385.177,286.105 385.082 C 286.597 384.987,286.100 384.911,285.000 384.914 C 283.900 384.917,283.497 384.995,284.105 385.087 M82.500 385.487 C 83.105 385.578,84.095 385.578,84.700 385.487 C 85.305 385.395,84.810 385.320,83.600 385.320 C 82.390 385.320,81.895 385.395,82.500 385.487 M275.700 385.487 C 276.305 385.578,277.295 385.578,277.900 385.487 C 278.505 385.395,278.010 385.320,276.800 385.320 C 275.590 385.320,275.095 385.395,275.700 385.487 M87.900 385.889 C 88.615 385.978,89.785 385.978,90.500 385.889 C 91.215 385.801,90.630 385.728,89.200 385.728 C 87.770 385.728,87.185 385.801,87.900 385.889 M269.900 385.889 C 270.615 385.978,271.785 385.978,272.500 385.889 C 273.215 385.801,272.630 385.728,271.200 385.728 C 269.770 385.728,269.185 385.801,269.900 385.889 M97.700 386.287 C 98.305 386.378,99.295 386.378,99.900 386.287 C 100.505 386.195,100.010 386.120,98.800 386.120 C 97.590 386.120,97.095 386.195,97.700 386.287 M260.500 386.287 C 261.105 386.378,262.095 386.378,262.700 386.287 C 263.305 386.195,262.810 386.120,261.600 386.120 C 260.390 386.120,259.895 386.195,260.500 386.287 M102.711 386.693 C 103.651 386.778,105.091 386.777,105.911 386.691 C 106.730 386.605,105.960 386.536,104.200 386.537 C 102.440 386.539,101.770 386.609,102.711 386.693 M254.711 386.693 C 255.651 386.778,257.091 386.777,257.911 386.691 C 258.730 386.605,257.960 386.536,256.200 386.537 C 254.440 386.539,253.770 386.609,254.711 386.693 M114.500 387.091 C 115.325 387.178,116.675 387.178,117.500 387.091 C 118.325 387.005,117.650 386.934,116.000 386.934 C 114.350 386.934,113.675 387.005,114.500 387.091 M242.900 387.091 C 243.725 387.178,245.075 387.178,245.900 387.091 C 246.725 387.005,246.050 386.934,244.400 386.934 C 242.750 386.934,242.075 387.005,242.900 387.091 M121.113 387.495 C 122.276 387.576,124.076 387.576,125.113 387.493 C 126.151 387.411,125.200 387.345,123.000 387.346 C 120.800 387.347,119.951 387.414,121.113 387.495 M235.100 387.495 C 236.255 387.576,238.145 387.576,239.300 387.495 C 240.455 387.414,239.510 387.348,237.200 387.348 C 234.890 387.348,233.945 387.414,235.100 387.495 M139.900 387.895 C 141.055 387.976,142.945 387.976,144.100 387.895 C 145.255 387.814,144.310 387.748,142.000 387.748 C 139.690 387.748,138.745 387.814,139.900 387.895 M216.300 387.895 C 217.455 387.976,219.345 387.976,220.500 387.895 C 221.655 387.814,220.710 387.748,218.400 387.748 C 216.090 387.748,215.145 387.814,216.300 387.895 M154.274 388.299 C 158.055 388.365,164.355 388.365,168.274 388.299 C 172.193 388.234,169.100 388.180,161.400 388.180 C 153.700 388.180,150.493 388.234,154.274 388.299 M191.874 388.299 C 195.655 388.365,201.955 388.365,205.874 388.299 C 209.793 388.234,206.700 388.180,199.000 388.180 C 191.300 388.180,188.093 388.234,191.874 388.299 " stroke="none" fill="#6aa97f" fill-rule="evenodd"></path></g></svg>