<svg xmlns="http://www.w3.org/2000/svg" width="400" height="400"><g fill-rule="evenodd"><path d="M163.6 166.4c0 .22-.72.4-1.6.4-.88 0-1.6.18-1.6.4 0 .22-.182.4-.405.4-.223 0-2.104 1.665-4.18 3.7a1804.725 1804.725 0 0 1-7.614 7.407l-3.839 3.708-1.881-1.925c-6.002-6.14-13.843-6.334-16.781-.415-1.174 2.365-1.29 7.745-.203 9.439 1.117 1.742 13.658 14.086 14.31 14.086.326 0 .593.18.593.4 0 .573 5.692.5 7.606-.097.877-.274 1.594-.634 1.594-.8 0-.167.289-.303.643-.303.354 0 2.379-1.828 4.5-4.063 2.121-2.235 5.004-5.16 6.406-6.5 5.822-5.566 10.851-10.67 10.851-11.013 0-.202.225-.605.5-.895 1.854-1.96 1.909-7.433.1-9.867-1.736-2.335-3.622-3.662-5.205-3.662-.767 0-1.395-.18-1.395-.4 0-.22-.54-.4-1.2-.4-.66 0-1.2.18-1.2.4M107 260.077c-6.887 2.252-11.549 6.807-14.251 13.923-.71 1.87-.709 9.734.002 11.6 3.682 9.663 10.065 14.438 19.449 14.548 5.297.063 6.718-.312 11.429-3.01 14.811-8.485 11.275-31.663-5.657-37.081-1.711-.547-9.279-.533-10.972.02m159.8.419c-11.421 4.237-16.718 16.941-11.76 28.204.412.935.886 1.7 1.054 1.7.168 0 .306.264.306.586 0 1.2 5.042 5.692 8.059 7.18 8.095 3.993 18.738 2.11 24.171-4.276 2.057-2.419 2.352-2.854 3.314-4.891a138.448 138.448 0 0 1 1.3-2.694c.196-.382.357-1.192.358-1.8.001-.608.202-1.824.446-2.703 1.289-4.643-1.954-12.892-6.808-17.314-4.967-4.526-14.161-6.321-20.44-3.992" fill="#ff7b71"/><path d="M55.2 82c0 .22-.9.4-2 .4s-2 .18-2 .4c0 .22-.54.4-1.2.4-.66 0-1.2.18-1.2.4 0 .22-.324.4-.72.4-.894 0-2.873.894-2.877 1.3-.002.165-.273.3-.603.3-.33 0-.6.18-.6.4 0 .22-.183.4-.406.4-.531 0-6.394 5.863-6.394 6.394 0 .223-.18.406-.4.406-.22 0-.4.27-.4.6 0 .33-.136.6-.302.6-.167 0-.542.585-.834 1.3-1.123 2.75-1.368 3.322-1.711 3.995-.194.382-.353 1.406-.353 2.276 0 .87-.18 1.693-.4 1.829-.554.343-.554 165.4 0 165.4.22 0 .4.799.4 1.776s.18 1.888.4 2.024c.22.136.4.687.4 1.224 0 .537.18.976.4.976.22 0 .4.36.4.8 0 .44.18.8.4.8.22 0 .4.272.4.604 0 .332.54 1.168 1.2 1.859.66.691 1.2 1.415 1.2 1.61 0 .55 2.711 3.127 3.29 3.127.285 0 .742.36 1.017.8.275.44.768.8 1.096.8.329 0 .597.18.597.4 0 .22.36.4.8.4.44 0 .8.18.8.4 0 .22.36.4.8.4.44 0 .8.18.8.4 0 .22.529.4 1.176.4.647 0 1.288.18 1.424.4.156.253 4.844.4 12.743.4h12.496l.481 1.328c.264.731.48 1.721.48 2.2 0 .48.18.872.4.872.22 0 .4.281.4.625 0 .881 2.408 5.775 2.842 5.775.197 0 .358.36.358.8 0 .44.15.8.332.8.183 0 .588.495.9 1.1.496.96 2.983 3.528 7.457 7.699.708.66 1.497 1.201 1.753 1.201.255 0 .755.329 1.111.73.356.402 1.232.986 1.947 1.298.715.312 1.3.703 1.3.87 0 .166.36.302.8.302.44 0 .8.18.8.4 0 .22.45.4 1 .4s1 .18 1 .4c0 .22.439.4.976.4.537 0 1.088.18 1.224.4.136.22.867.4 1.624.4.757 0 1.376.18 1.376.4 0 .222 1.067.4 2.4.4s2.4.178 2.4.4c0 .531 7.872.531 8.2 0 .136-.22 1.216-.4 2.4-.4s2.264-.18 2.4-.4c.136-.22.867-.4 1.624-.4.757 0 1.376-.18 1.376-.4 0-.22.439-.4.976-.4.537 0 1.088-.18 1.224-.4.136-.22.597-.4 1.024-.4.427 0 .776-.18.776-.4 0-.22.36-.4.8-.4.44 0 .8-.18.8-.4 0-.22.36-.4.8-.4.44 0 .8-.18.8-.4 0-.22.32-.4.712-.4.391 0 .971-.36 1.288-.8.317-.44.772-.8 1.01-.8.389 0 2.158-1.423 4.39-3.531 1.698-1.604 4.025-4.346 4.568-5.384.312-.597.717-1.085.9-1.085.182 0 .332-.236.332-.525 0-.288.36-.911.8-1.383.44-.472.8-1.136.8-1.475 0-.339.18-.617.4-.617.22 0 .4-.36.4-.8 0-.44.18-.8.4-.8.22 0 .4-.54.4-1.2 0-.66.18-1.2.4-1.2.22 0 .4-.439.4-.976 0-.537.18-1.088.4-1.224.22-.136.4-.687.4-1.224v-.976H193c43.133 0 43.4.005 43.4.8 0 .44.18.8.4.8.22 0 .4.529.4 1.176 0 .647.18 1.288.4 1.424.22.136.4.597.4 1.024 0 .427.18.776.4.776.22 0 .4.36.4.8 0 .44.18.8.4.8.22 0 .4.36.4.8 0 .44.18.8.4.8.22 0 .4.36.4.8 0 .44.18.8.4.8.22 0 .4.36.4.8 0 .44.139.8.309.8.17 0 .631.597 1.024 1.328 1.134 2.106 6.986 7.872 7.989 7.872.276 0 .761.36 1.078.8.317.44.857.8 1.2.8.343 0 .883.36 1.2.8.317.44.897.8 1.288.8.392 0 .712.18.712.4 0 .22.36.4.8.4.44 0 .8.18.8.4 0 .22.45.4 1 .4s1 .18 1 .4c0 .22.54.4 1.2.4.66 0 1.2.18 1.2.4 0 .22.529.4 1.176.4.647 0 1.288.18 1.424.4.136.22 1.306.4 2.6.4s2.464.18 2.6.4c.137.221 1.937.4 4.024.4 2.251 0 3.776-.162 3.776-.4 0-.222 1.067-.4 2.4-.4s2.4-.178 2.4-.4c0-.22.72-.4 1.6-.4.88 0 1.6-.18 1.6-.4 0-.22.439-.4.976-.4.537 0 1.088-.18 1.224-.4.136-.22.597-.4 1.024-.4.427 0 .776-.18.776-.4 0-.22.36-.4.8-.4.44 0 .8-.18.8-.4 0-.22.27-.4.6-.4.33 0 .6-.18.6-.4 0-.22.36-.4.8-.4.44 0 .8-.15.8-.332 0-.183.495-.588 1.1-.9.605-.313 1.577-1.063 2.16-1.668.584-.605 1.23-1.1 1.437-1.1.418 0 4.103-3.38 4.103-3.764 0-.134.54-.808 1.2-1.499.66-.691 1.2-1.499 1.2-1.796 0-.298.152-.541.337-.541.186 0 .768-.855 1.295-1.9.526-1.045 1.078-1.99 1.226-2.101.148-.11.395-.875.55-1.7.154-.824.441-1.499.637-1.499.195 0 .355-.54.355-1.2 0-.66.18-1.2.4-1.2.22 0 .4-.63.4-1.4v-1.4h20.8c13.6 0 20.8-.138 20.8-.4 0-.22.54-.4 1.2-.4.66 0 1.2-.18 1.2-.4 0-.22.315-.404.7-.409.385-.005 1.15-.361 1.7-.791.55-.43 1.147-.786 1.327-.791.568-.016 6.273-6.064 6.273-6.65 0-.307.18-.559.4-.559.22 0 .4-.36.4-.8 0-.44.18-.8.4-.8.22 0 .4-.439.4-.976 0-.537.18-1.088.4-1.224.22-.136.4-.856.4-1.6 0-.744.18-1.464.4-1.6.553-.342.553-71.8 0-71.8-.22 0-.4-.466-.4-1.035 0-1.11-4.008-5.365-5.054-5.365-.3 0-.546-.145-.546-.323 0-.178-.72-.641-1.6-1.029-.88-.388-1.6-.873-1.6-1.077 0-.204-.27-.371-.6-.371-.33 0-.6-.15-.6-.332 0-.183-.495-.587-1.1-.898-.605-.31-1.391-.881-1.747-1.267-.356-.387-.901-.703-1.212-.703-.31 0-.824-.36-1.141-.8-.317-.44-.82-.8-1.117-.8-.723 0-1.683-.997-1.683-1.748 0-.333-.18-.716-.4-.852-.22-.136-.4-.687-.4-1.224 0-.537-.18-.976-.4-.976-.22 0-.4-.272-.4-.605 0-.333-.208-1.008-.462-1.5-.971-1.877-1.138-2.302-1.138-2.89 0-.333-.18-.605-.4-.605-.22 0-.4-.45-.4-1s-.18-1-.4-1c-.22 0-.4-.349-.4-.776 0-.427-.18-.888-.4-1.024-.22-.136-.4-.687-.4-1.224 0-.537-.18-.976-.4-.976-.22 0-.4-.349-.4-.776 0-.427-.18-.888-.4-1.024-.22-.136-.401-.642-.402-1.124-.002-.482-.272-1.392-.6-2.022-.329-.63-.598-1.389-.598-1.688 0-.298-.36-1.183-.8-1.966-.44-.783-.8-1.779-.8-2.212 0-.433-.18-.788-.4-.788-.22 0-.4-.349-.4-.776 0-.427-.18-.888-.4-1.024-.22-.136-.4-.687-.4-1.224 0-.537-.18-.976-.4-.976-.22 0-.4-.349-.4-.776 0-.427-.18-.888-.4-1.024-.22-.136-.4-.687-.4-1.224 0-.537-.18-.976-.4-.976-.22 0-.4-.36-.4-.8 0-.44-.18-.8-.4-.8-.22 0-.4-.54-.4-1.2 0-.66-.18-1.2-.4-1.2-.22 0-.4-.36-.4-.8 0-.44-.18-.8-.4-.8-.22 0-.4-.45-.4-1s-.18-1-.4-1c-.22 0-.4-.36-.4-.8 0-.44-.18-.8-.4-.8-.22 0-.4-.36-.4-.8 0-.44-.18-.8-.4-.8-.22 0-.4-.36-.4-.8 0-.44-.15-.8-.332-.8-.183 0-.588-.492-.9-1.094-.673-1.295-4.572-5.306-5.159-5.306-.225 0-.409-.15-.409-.333 0-.456-4.738-2.867-5.633-2.867-.396 0-.819-.161-.941-.358-.49-.793-4.687-.952-29.126-1.102l-25.5-.157v-10.792c0-6.927-.143-10.791-.4-10.791-.22 0-.4-.9-.4-2s-.18-2-.4-2c-.22 0-.4-.54-.4-1.2 0-.66-.18-1.2-.4-1.2-.22 0-.4-.349-.4-.776 0-.427-.16-.876-.356-.997-.195-.121-.474-.693-.619-1.271-.47-1.871-4.979-7.009-7.13-8.124-.602-.312-1.095-.717-1.095-.9 0-.182-.36-.332-.8-.332-.44 0-.801-.135-.803-.3-.004-.359-1.941-1.3-2.677-1.3-.286 0-.52-.18-.52-.4 0-.22-.54-.4-1.2-.4-.66 0-1.2-.18-1.2-.4 0-.22-.799-.4-1.776-.4s-1.888-.18-2.024-.4c-.164-.265-31.337-.4-92.224-.4-61.051 0-91.976.134-91.976.4m97.6 46.8c0 .233 1.333.4 3.2.4 1.867 0 3.2.167 3.2.4 0 .22.72.4 1.6.4.88 0 1.6.18 1.6.4 0 .22.63.4 1.4.4.77 0 1.4.18 1.4.4 0 .22.54.4 1.2.4.66 0 1.2.18 1.2.4 0 .22.54.4 1.2.4.66 0 1.2.18 1.2.4 0 .22.36.4.8.4.44 0 .8.18.8.4 0 .22.36.4.8.4.44 0 .8.18.8.4 0 .22.36.4.8.4.44 0 .8.146.8.325 0 .179.63.573 1.4.875.77.302 1.4.696 1.4.875 0 .179.193.325.428.325.411 0 3.961 2.276 4.372 2.804.11.141.823.603 1.584 1.026 1.959 1.091 8.584 7.832 9.625 9.795.284.536.848 1.266 1.254 1.622.405.356.737.817.737 1.024 0 .208.325.727.722 1.154.398.426.981 1.36 1.298 2.075.316.715.711 1.3.878 1.3.166 0 .302.36.302.8 0 .44.135.801.3.803.359.004 1.3 1.941 1.3 2.677 0 .286.18.52.4.52.22 0 .4.36.4.8 0 .44.18.8.4.8.22 0 .4.439.4.976 0 .537.18 1.088.4 1.224.22.136.4.687.4 1.224 0 .537.18.976.4.976.22 0 .4.63.4 1.4 0 .77.18 1.4.4 1.4.22 0 .4.72.4 1.6 0 .88.18 1.6.4 1.6.226 0 .4 1.133.4 2.6s.174 2.6.4 2.6c.248 0 .4 2.133.4 5.6 0 3.467-.152 5.6-.4 5.6-.22 0-.4.979-.4 2.176s-.18 2.288-.4 2.424c-.22.136-.4 1.047-.4 2.024 0 .977-.18 1.776-.4 1.776-.22 0-.4.54-.4 1.2 0 .66-.18 1.2-.4 1.2-.22 0-.4.54-.4 1.2 0 .66-.18 1.2-.4 1.2-.22 0-.4.54-.4 1.2 0 .66-.18 1.2-.4 1.2-.22 0-.4.36-.4.8 0 .44-.146.8-.325.8-.179 0-.573.63-.875 1.4-.302.77-.696 1.4-.875 1.4-.179 0-.325.36-.325.8 0 .44-.18.8-.4.8-.22 0-.4.36-.4.8 0 .44-.15.8-.332.8-.183 0-.587.495-.898 1.1-.31.605-.881 1.391-1.267 1.747-.387.356-.703.859-.703 1.118 0 .259-.405.905-.9 1.434-1.354 1.448-1.743 1.958-2.305 3.026-.283.536-1.053 1.425-1.713 1.975a72.219 72.219 0 0 0-2.382 2.1c-.652.605-1.308 1.1-1.459 1.1-.151 0-.942.63-1.759 1.4-.816.77-1.618 1.4-1.783 1.401-.164 0-.929.54-1.699 1.199s-1.625 1.199-1.9 1.199c-.275.001-.5.181-.5.401 0 .22-.236.4-.525.4-.288 0-.911.36-1.383.8-.472.44-1.046.8-1.275.8a.41.41 0 0 0-.417.4c0 .22-.439.4-.976.4-.537 0-1.088.18-1.224.4-.136.22-.597.4-1.024.4-.427 0-.776.18-.776.4 0 .22-.36.4-.8.4-.44 0-.8.18-.8.4 0 .22-.54.4-1.2.4-.66 0-1.2.18-1.2.4 0 .22-.54.4-1.2.4-.66 0-1.2.18-1.2.4 0 .22-.72.4-1.6.4-.88 0-1.6.141-1.6.313 0 1.512-22.724 1.499-24.234-.013-.165-.165-.899-.3-1.633-.3-.733 0-1.333-.18-1.333-.4 0-.22-.54-.4-1.2-.4-.66 0-1.2-.18-1.2-.4 0-.22-.54-.4-1.2-.4-.66 0-1.2-.18-1.2-.4 0-.22-.439-.4-.976-.4-.537 0-1.088-.18-1.224-.4-.136-.22-.597-.4-1.024-.4-.427 0-.776-.18-.776-.4 0-.22-.27-.4-.6-.4-.33 0-.6-.18-.6-.4 0-.22-.36-.4-.8-.4-.44 0-.8-.18-.8-.4 0-.22-.32-.4-.712-.4-.391 0-.971-.36-1.288-.8-.317-.44-.857-.8-1.2-.8-.343 0-.883-.36-1.2-.8-.317-.44-.809-.8-1.092-.8-.283 0-1.08-.54-1.771-1.2-.691-.66-1.416-1.2-1.613-1.2-.503 0-7.149-6.711-8.317-8.4-.533-.77-1.293-1.691-1.688-2.047-.395-.356-.719-.901-.719-1.212 0-.31-.36-.824-.8-1.141-.44-.317-.8-.897-.8-1.288 0-.392-.18-.712-.4-.712-.22 0-.4-.236-.4-.525 0-.288-.36-.911-.8-1.383-.44-.472-.8-1.136-.8-1.475 0-.339-.18-.617-.4-.617-.22 0-.4-.36-.4-.8 0-.44-.18-.8-.4-.8-.22 0-.4-.45-.4-1s-.18-1-.4-1c-.22 0-.4-.36-.4-.8 0-.44-.18-.8-.4-.8-.22 0-.4-.54-.4-1.2 0-.66-.18-1.2-.4-1.2-.22 0-.4-.54-.4-1.2 0-.66-.18-1.2-.4-1.2-.22 0-.4-.72-.4-1.6 0-.88-.18-1.6-.4-1.6-.22 0-.4-.99-.4-2.2 0-1.21-.18-2.2-.4-2.2-.252 0-.4-2.667-.4-7.2s.148-7.2.4-7.2c.22 0 .4-.979.4-2.176s.18-2.288.4-2.424c.22-.136.4-.867.4-1.624 0-.757.18-1.376.4-1.376.22 0 .4-.54.4-1.2 0-.66.18-1.2.4-1.2.22 0 .4-.54.4-1.2 0-.66.18-1.2.4-1.2.22 0 .4-.54.4-1.2 0-.66.18-1.2.4-1.2.22 0 .4-.36.4-.8 0-.44.18-.8.4-.8.22 0 .4-.36.4-.8 0-.44.18-.8.4-.8.22 0 .4-.36.4-.8 0-.44.136-.8.302-.8.167 0 .527-.506.801-1.125.273-.619.857-1.511 1.297-1.983.44-.472.8-1.048.8-1.279 0-.231.54-.985 1.2-1.676.66-.691 1.2-1.402 1.2-1.581 0-.399 2.45-3.092 6.275-6.896 3.241-3.225 3.494-3.438 5.025-4.228.605-.312 1.1-.717 1.1-.9 0-.182.236-.332.525-.332.288 0 .881-.315 1.317-.7 1.005-.888 2.949-2.083 3.858-2.371.385-.122.7-.381.7-.576 0-.194.36-.353.8-.353.44 0 .8-.18.8-.4 0-.22.45-.4 1-.4s1-.18 1-.4c0-.22.36-.4.8-.4.44 0 .8-.18.8-.4 0-.22.54-.4 1.2-.4.66 0 1.2-.18 1.2-.4 0-.22.439-.4.976-.4.537 0 1.088-.18 1.224-.4.136-.22.777-.4 1.424-.4.647 0 1.176-.18 1.176-.4 0-.22.799-.4 1.776-.4s1.888-.18 2.024-.4c.136-.22 1.587-.4 3.224-.4 1.717 0 2.976-.169 2.976-.4 0-.237 1.467-.4 3.6-.4s3.6.163 3.6.4m124.8 16.8c0 .88.18 1.6.4 1.6.238 0 .4 1.525.4 3.776 0 2.087.179 3.887.4 4.024.221.136.4 1.93.4 4 0 2.07.179 3.864.4 4 .221.137.4 1.937.4 4.024 0 2.251.162 3.776.4 3.776.238 0 .4 1.525.4 3.776 0 2.087.179 3.887.4 4.024.221.137.4 1.937.4 4.024 0 2.251.162 3.776.4 3.776.235 0 .4 1.4.4 3.4s.165 3.4.4 3.4c.22 0 .4.54.4 1.2 0 .66.141 1.2.314 1.2.172 0 .632.54 1.022 1.2.39.66.929 1.2 1.198 1.2.269 0 .749.36 1.066.8.402.557 1.035.8 2.088.8.832 0 1.512.18 1.512.4 0 .262 8.467.4 24.6.4 16.133 0 24.6.138 24.6.4 0 .22.32.4.712.4.391 0 .971.36 1.288.8.317.44.724.8.905.8.181 0 .715.36 1.187.8.472.44 1.095.8 1.383.8.289 0 .525.15.525.332 0 .183.492.588 1.094.9 2.714 1.408 2.906 1.794 2.906 5.84v3.728h-13.272c-9.588 0-13.668.139-14.7.5-1.608.563-4.828 3.557-4.828 4.489 0 .336-.18.611-.4.611-.235 0-.4 1.4-.4 3.4s.165 3.4.4 3.4c.22 0 .4.294.4.653 0 .359.786 1.439 1.747 2.4.961.961 2.041 1.747 2.4 1.747s.653.18.653.4c0 .259 4.933.4 14 .4h14v17.2c0 11.2-.14 17.2-.4 17.2-.22 0-.4.328-.4.728 0 2.436-.297 2.472-20.203 2.472H310.4v-1.376c0-.757-.18-1.488-.4-1.624-.22-.136-.4-.597-.4-1.024 0-.427-.18-.776-.4-.776-.22 0-.4-.506-.4-1.124 0-.617-.63-2.169-1.4-3.448-.77-1.279-1.4-2.443-1.4-2.588 0-.145-.36-.523-.8-.84-.44-.317-.8-.817-.8-1.111 0-.658-7.482-8.089-8.145-8.089-.263 0-.738-.36-1.055-.8-.317-.44-.897-.8-1.288-.8-.392 0-.712-.18-.712-.4 0-.22-.345-.4-.767-.4-.421 0-.826-.135-.9-.3-.073-.165-1.033-.725-2.133-1.244s-2.313-1.104-2.695-1.3c-.382-.196-1.111-.356-1.62-.356-.509 0-1.096-.158-1.305-.35-1.635-1.506-17.579-1.409-21.08.128-.665.292-.7-2.206-.7-49.335V144h15.6v1.6M116 259.048c.99.118 2.16.363 2.6.543.44.181 1.43.559 2.2.841 9.163 3.354 15.53 17.04 11.988 25.768-3.857 9.504-11.159 14.778-20.388 14.726-6.181-.035-12.878-3.049-15.674-7.055-.488-.699-.995-1.361-1.126-1.471-.664-.556-2-2.803-2-3.362 0-.351-.18-.638-.4-.638-.22 0-.4-.349-.4-.776 0-.427-.161-.876-.358-.998-.349-.216-.572-1.392-1.093-5.77-.321-2.697.453-6.51 1.898-9.351.194-.382.353-.967.353-1.3 0-.333.18-.605.4-.605.22 0 .4-.266.4-.592 0-.676 5.315-6.144 6.755-6.949l2.312-1.297c.747-.419 1.682-.762 2.078-.762.397 0 .856-.135 1.019-.3.475-.478 5.119-1.229 6.436-1.041.66.095 2.01.27 3 .389m160.4-.086c9.425 1.718 15.47 7.267 17.956 16.484.533 1.977.587 7.351.086 8.635-.197.506-.591 1.729-.875 2.719-.284.99-.843 2.278-1.242 2.862-.399.584-.725 1.167-.725 1.295 0 1.011-5.566 6.332-7.9 7.553-19.254 10.067-39.471-11.795-27.791-30.053 1.48-2.315 5.154-6.057 5.945-6.057.264 0 .539-.135.613-.3.132-.298 3.002-1.762 4.533-2.314.44-.158 1.97-.511 3.4-.783s2.69-.516 2.8-.541c.11-.026 1.55.2 3.2.5" fill="#9a9aed"/><path d="M110.6 258.8c-.865.22-.361.305 1.8.305s2.665-.085 1.8-.305c-.66-.168-1.47-.305-1.8-.305-.33 0-1.14.137-1.8.305m161.2 0c-.865.22-.361.305 1.8.305s2.665-.085 1.8-.305c-.66-.168-1.47-.305-1.8-.305-.33 0-1.14.137-1.8.305m-154.4.8c1.101.473 1.492.473 1.2 0-.136-.22-.642-.387-1.124-.372-.845.027-.847.041-.076.372m142.878 3.813c-.618.543-.978.981-.8.973.478-.022 2.79-1.984 2.322-1.971-.22.005-.905.455-1.522.998M97.6 265c-.972.99-1.677 1.8-1.567 1.8.11 0 .995-.81 1.967-1.8.972-.99 1.677-1.8 1.567-1.8-.11 0-.995.81-1.967 1.8m190-.874c0 .095.747.961 1.66 1.923l1.66 1.751-1.289-1.694c-1.2-1.578-2.031-2.388-2.031-1.98m-30.404 2.371c-1.17 1.759-1.26 2.085-.25.903.891-1.043 1.291-1.8.95-1.8-.057 0-.372.404-.7.897m-128.396.023c0 .384 2.045 3.48 2.299 3.48.179 0-.458-1.081-1.76-2.989-.297-.434-.539-.655-.539-.491m-33.931 1.519c-.759 1.215-.303 1.377.486.173.365-.556.523-1.012.35-1.012-.172 0-.548.378-.836.839M252.893 276c0 .77.082 1.085.183.7.1-.385.1-1.015 0-1.4-.101-.385-.183-.07-.183.7m41.307 3.773c0 2.501.132 4.34.294 4.087.366-.573.348-7.012-.022-7.947-.15-.378-.272 1.359-.272 3.86M91.452 276.9c-.318 1.188-.268 5.117.076 5.985.15.377.272-1.018.272-3.1 0-4.161-.002-4.176-.348-2.885m41.841.7c0 .77.082 1.085.183.7.1-.385.1-1.015 0-1.4-.101-.385-.183-.07-.183.7m119.235 2.4c0 1.43.073 2.015.161 1.3.089-.715.089-1.885 0-2.6-.088-.715-.161-.13-.161 1.3m-119.674 4.267a8.132 8.132 0 0 1-.284 1.6c-.218.694-.206.695.226.021.251-.391.379-1.111.285-1.6-.172-.887-.172-.887-.227-.021m-40.826 1.209c-.015.482.152.988.372 1.124.473.292.473-.099 0-1.2-.331-.771-.345-.769-.372.076m161.576 1.237c-.005.597 1.588 3.748 2.773 5.487.45.66.819 1.048.82.862.002-.186-.358-.845-.799-1.465-.441-.619-1.249-2.087-1.796-3.261-.547-1.175-.996-1.905-.998-1.623M127.2 294.6c-.972.99-1.677 1.8-1.567 1.8.11 0 .995-.81 1.967-1.8.972-.99 1.677-1.8 1.567-1.8-.11 0-.995.81-1.967 1.8m160.981.3-1.581 1.7 1.7-1.581c.935-.87 1.7-1.635 1.7-1.7 0-.303-.348 0-1.819 1.581m-191.199-.529c.126.204.992.951 1.924 1.66l1.694 1.289-1.751-1.66c-1.697-1.61-2.339-2.053-1.867-1.289M261.2 297c.745.55 1.455.999 1.578.998.377-.003-2.154-1.968-2.556-1.984-.207-.008.233.436.978.986m-159.6.964c.55.45 1.18.819 1.4.821.428.003-.295-.551-1.6-1.225-.531-.275-.464-.139.2.404m180.2 1.074c-1.1.534-1.55.856-1 .716 1.172-.299 3.2-1.291 3.2-1.564 0-.237.165-.301-2.2.848m-178.2-.007c0 .27 2.078 1.025 2.276.826.091-.09-.384-.356-1.056-.59-.671-.234-1.22-.34-1.22-.236m161.2 0c0 .27 2.078 1.025 2.276.826.091-.09-.384-.356-1.056-.59-.671-.234-1.22-.34-1.22-.236M107.4 300.4c.44.189 1.16.338 1.6.332.643-.009.604-.075-.2-.332-1.368-.438-2.419-.438-1.4 0m8.8 0c-1.019.438.032.438 1.4 0 .804-.257.843-.323.2-.332-.44-.006-1.16.143-1.6.332m152.2 0c.55.176 1.36.32 1.8.32.633 0 .592-.066-.2-.32-.55-.176-1.36-.32-1.8-.32-.633 0-.592.066.2.32m9 0c-1.019.438.032.438 1.4 0 .804-.257.843-.323.2-.332-.44-.006-1.16.143-1.6.332m-165.495.683c.497.096 1.217.092 1.6-.008.382-.1-.025-.179-.905-.174-.88.004-1.193.086-.695.182m160.995-.007c.385.1 1.015.1 1.4 0 .385-.101.07-.183-.7-.183s-1.085.082-.7.183" fill="#603e2d"/><path d="M110.713 259.495c1.163.081 2.963.081 4-.002 1.038-.082.087-.148-2.113-.147-2.2.001-3.049.068-1.887.149m160.987-.001a29.38 29.38 0 0 0 3.8 0c1.045-.082.19-.15-1.9-.15s-2.945.068-1.9.15M106.4 260c-.824.264-.859.326-.2.354.44.019 1.07-.141 1.4-.354.701-.453.214-.453-1.2 0m-5.038 2.328c-2.429 1.572-5.41 4.612-6.685 6.82-1.119 1.94-.504 1.476.86-.648 1.628-2.534 3.758-4.547 6.639-6.275 1.308-.784 2.19-1.425 1.962-1.425-.227 0-1.477.688-2.776 1.528m22.038-.052c.22.206 1.39 1.146 2.6 2.088l2.2 1.712-1.8-1.659c-.99-.913-2.16-1.852-2.6-2.087-.44-.236-.62-.259-.4-.054m136.478 1.937c-.618.543-.964.987-.77.987.194 0 .775-.45 1.292-1 1.195-1.272.931-1.266-.522.013m-2.149 2.287c-.445.495-.953 1.17-1.128 1.5-.338.637-.246.55 1.375-1.3.53-.605.873-1.1.763-1.1-.11 0-.564.405-1.01.9m-125.717 7.1c0 .33.175.87.388 1.2.345.533.388.533.388 0 0-.33-.175-.87-.388-1.2-.345-.533-.388-.533-.388 0m121.417 1.029c-.148.586-.191 1.143-.097 1.237.095.094.292-.308.439-.895.148-.586.191-1.143.097-1.237-.095-.094-.292.308-.439.895m40.258.971c-.004.55.137 1.45.313 2 .431 1.344.431-.108 0-1.8-.274-1.078-.306-1.098-.313-.2m-201.895 2.14c-.15 1.396-.117 3.511.074 4.7.297 1.859.346 1.506.347-2.54.003-5.401-.047-5.656-.421-2.16m41.117.26c0 .99.078 1.395.173.9a5.661 5.661 0 0 0 0-1.8c-.095-.495-.173-.09-.173.9m120.015 1.8c.002 1.32.077 1.812.166 1.093.089-.719.087-1.799-.004-2.4s-.164-.013-.162 1.307m-120.023 2c.004.88.086 1.193.182.695.096-.497.092-1.217-.008-1.6-.1-.382-.179.025-.174.905m160.899 1c-.154.91-.189 1.744-.079 1.854.11.11.325-.544.479-1.454.154-.91.189-1.744.079-1.854-.11-.11-.325.544-.479 1.454m-200.321 5.5c.288.794 1.321 2.397 1.321 2.05 0-.348-1.237-2.75-1.417-2.75-.087 0-.044.315.096.7m3.321 5.1c.746.77 1.447 1.4 1.557 1.4.11 0-.411-.63-1.157-1.4-.746-.77-1.447-1.4-1.557-1.4-.11 0 .411.63 1.157 1.4m30.181 1.1-1.581 1.7 1.7-1.581c1.581-1.471 1.884-1.819 1.581-1.819-.065 0-.83.765-1.7 1.7m160.997.2-1.378 1.5 1.5-1.378c1.396-1.284 1.684-1.622 1.378-1.622-.066 0-.741.675-1.5 1.5m-29.578-.748c0 .39 1.555 1.846 1.723 1.612.064-.09-.297-.563-.803-1.05-.506-.487-.92-.74-.92-.562m-135.6 3.681-1 .815 1.3-.634c.715-.349 1.3-.72 1.3-.824 0-.398-.637-.142-1.6.643m-13.521 2.827c1.171.331 4.955.324 6.521-.012.66-.142-.744-.255-3.121-.253-2.377.003-3.907.122-3.4.265m161.197 0c.508.143 1.914.26 3.124.26 1.21 0 2.616-.117 3.124-.26.508-.143-.898-.26-3.124-.26s-3.632.117-3.124.26" fill="#84542c"/><path d="M133.293 280c0 .77.082 1.085.183.7.1-.385.1-1.015 0-1.4-.101-.385-.183-.07-.183.7" fill="#7c542c"/></g></svg>